<svg width="180" height="37" viewBox="0 0 180 37" fill="none" xmlns="http://www.w3.org/2000/svg">
<path d="M0 0.553768C0 0.562987 0.707979 1.65999 1.57267 2.99298L3.14534 5.41744L9.71443 5.42297C14.9671 5.42666 16.2817 5.42297 16.2743 5.40453C16.2706 5.39162 15.5608 4.29278 14.6979 2.96532L13.1308 0.550081L6.5654 0.54455C2.9536 0.542706 0 0.546393 0 0.553768Z" fill="url(#paint0_linear_25_2917)"/>
<path d="M28.8002 2.96535C27.9982 4.29835 27.3418 5.39903 27.3418 5.40825C27.3418 5.42116 29.5432 5.42669 33.7266 5.42669H40.1094L41.6213 3.02804C42.4528 1.70795 43.1442 0.607267 43.1571 0.585142L43.181 0.540894H30.2604L28.8002 2.96535Z" fill="url(#paint1_linear_25_2917)"/>
<path d="M46.5901 5.42669H66.8616C80.7114 5.42669 87.133 5.42116 87.133 5.40825C87.133 5.38059 86.8233 4.92151 86.65 4.6929C86.3144 4.25041 86.036 3.94067 85.4811 3.39678C84.574 2.50627 83.6558 1.90154 82.4002 1.37056C81.2442 0.880134 80.1731 0.631235 78.9101 0.559331C78.7018 0.548268 72.9366 0.540894 62.5897 0.540894H46.5901V5.42669Z" fill="url(#paint2_linear_25_2917)"/>
<path d="M101.057 0.561174C100.194 0.607266 99.3143 0.76398 98.5123 1.01288C96.3791 1.67477 94.4469 3.02066 93.1398 4.75374C92.9904 4.95101 92.6825 5.39719 92.6825 5.41562C92.6825 5.42116 100.911 5.42669 110.968 5.42669L129.252 5.42484L131.354 3.00038C132.51 1.66739 133.46 0.568549 133.461 0.55933C133.469 0.537206 101.455 0.53905 101.057 0.561174Z" fill="url(#paint3_linear_25_2917)"/>
<path d="M142.923 0.561173C141.867 0.625703 140.928 0.859852 140.121 1.26178C139.544 1.54939 139.159 1.82226 138.687 2.28319C138.041 2.91189 137.621 3.56271 137.309 4.42187C137.232 4.63574 137.042 5.32897 137.042 5.39903C137.042 5.423 139.057 5.42669 154.576 5.42669H172.107L174.401 3.00591C175.662 1.67477 176.7 0.575923 176.707 0.563017C176.718 0.546424 172.966 0.540893 159.946 0.542736C150.72 0.54458 143.06 0.553799 142.923 0.561173Z" fill="url(#paint4_linear_25_2917)"/>
<path d="M149.039 9.27442L137.224 9.27995L137.235 9.32236C137.276 9.4551 137.433 9.82384 137.551 10.0543C138.533 11.9902 140.436 13.1867 142.859 13.3914C143.004 13.4025 146.918 13.4098 154.354 13.4098C162.055 13.4098 165.678 13.4154 165.783 13.4283C166.307 13.4946 166.661 13.7675 166.91 14.2985C167.214 14.9493 167.164 15.6813 166.773 16.286C166.598 16.557 166.369 16.7414 166.102 16.8262C166.025 16.852 165.94 16.8797 165.914 16.887C165.888 16.8963 160.363 16.9073 153.635 16.9129L141.404 16.9221L139.498 19.0423C138.45 20.2075 137.51 21.2566 137.409 21.3709L137.224 21.5774L155.722 21.5719C173.088 21.5663 174.235 21.5645 174.45 21.535C175.164 21.4373 175.619 21.3248 176.137 21.122C177.286 20.6685 178.259 19.8738 178.907 18.8616C179.048 18.6385 179.308 18.1168 179.397 17.8716C179.683 17.0954 179.803 16.3653 179.803 15.4102C179.801 13.9353 179.469 12.7867 178.744 11.7505C178.556 11.4832 178.353 11.2509 178.069 10.9762C176.965 9.90865 175.627 9.36292 173.903 9.27995C173.681 9.26889 171.052 9.26336 167.195 9.26705C163.707 9.26889 155.536 9.27258 149.039 9.27442Z" fill="url(#paint5_linear_25_2917)"/>
<path d="M5.66365 9.29655C5.66734 9.30576 7.45757 12.0732 9.64235 15.4453L13.6155 21.5756L29.9359 21.5774L33.7948 15.4526C35.9169 12.0824 37.6573 9.31498 37.661 9.30392C37.6684 9.28364 36.411 9.27995 31.3316 9.28364L24.9948 9.28917L23.5125 11.7505C22.6994 13.1038 22.0246 14.2137 22.0172 14.2174C22.008 14.2192 21.2816 13.1093 20.3985 11.7505L18.7963 9.27995H12.2272C8.33701 9.27995 5.65996 9.28733 5.66365 9.29655Z" fill="url(#paint6_linear_25_2917)"/>
<path d="M46.5901 21.5774H59.7726V9.27995H46.5901V21.5774Z" fill="url(#paint7_linear_25_2917)"/>
<path d="M76.2553 9.28735C76.2553 9.29288 76.283 9.39428 76.318 9.51412C76.4692 10.0396 76.5319 10.4563 76.5448 11.0444C76.5688 12.0603 76.4047 12.8678 76.0064 13.6772C75.634 14.4368 75.103 15.0747 74.3711 15.6463C73.4474 16.3635 72.3652 16.7857 71.1575 16.8944C71.0322 16.9055 69.725 16.9129 67.719 16.9129H64.4834L62.3815 19.2286C61.2255 20.5025 60.276 21.5535 60.2742 21.5608C60.2705 21.5719 64.2123 21.5756 69.677 21.5719C78.5083 21.5682 79.102 21.5645 79.362 21.535C80.6286 21.3857 81.5984 21.1054 82.6806 20.5726C83.8514 19.9974 84.7843 19.3097 85.6693 18.3731C86.604 17.3849 87.2696 16.3856 87.8153 15.1521C88.5768 13.4301 88.8588 11.3947 88.6063 9.44959L88.5841 9.27997H82.4207C79.0301 9.27997 76.2553 9.28366 76.2553 9.28735Z" fill="url(#paint8_linear_25_2917)"/>
<path d="M91.1634 9.50494C91.0103 10.6499 91.0398 11.8778 91.2445 12.9951C91.4934 14.3502 91.9967 15.5891 92.7877 16.7931C93.6782 18.1463 94.7586 19.1788 96.204 20.0601C97.679 20.958 99.2037 21.4373 100.961 21.559C101.134 21.5701 106.127 21.5775 115.268 21.5756H129.308L133.528 16.9221L121.885 16.9129C111.16 16.9037 110.229 16.9 110.048 16.8724C109.291 16.7544 108.787 16.6032 108.253 16.3322C107.237 15.8196 106.56 15.2278 105.985 14.3502C105.439 13.5187 105.118 12.6595 105.006 11.7321C104.969 11.4371 104.965 10.7716 104.997 10.4692C105.035 10.1041 105.157 9.49573 105.229 9.31136C105.242 9.28186 104.901 9.28001 98.2173 9.28001H91.1947L91.1634 9.50494Z" fill="url(#paint9_linear_25_2917)"/>
<path d="M108.326 11.3302C107.211 12.4567 106.296 13.3859 106.293 13.3951C106.289 13.4025 110.188 13.4099 114.958 13.4099H123.629L125.353 11.4168C126.3 10.3198 127.104 9.39061 127.138 9.35189L127.2 9.27999H110.354L108.326 11.3302Z" fill="url(#paint10_linear_25_2917)"/>
<mask id="mask0_25_2917" style="mask-type:alpha" maskUnits="userSpaceOnUse" x="0" y="0" width="180" height="22">
<path d="M0 0.553768C0 0.562987 0.707979 1.65999 1.57267 2.99298L3.14534 5.41744L9.71443 5.42297C14.9671 5.42666 16.2817 5.42297 16.2743 5.40453C16.2706 5.39162 15.5608 4.29278 14.6979 2.96532L13.1308 0.550081L6.5654 0.54455C2.9536 0.542706 0 0.546393 0 0.553768Z" fill="url(#paint11_linear_25_2917)"/>
<path d="M28.8002 2.96535C27.9982 4.29835 27.3418 5.39903 27.3418 5.40825C27.3418 5.42116 29.5432 5.42669 33.7266 5.42669H40.1094L41.6213 3.02804C42.4528 1.70795 43.1442 0.607267 43.1571 0.585142L43.181 0.540894H30.2604L28.8002 2.96535Z" fill="url(#paint12_linear_25_2917)"/>
<path d="M46.5901 5.42669H66.8616C80.7114 5.42669 87.133 5.42116 87.133 5.40825C87.133 5.38059 86.8233 4.92151 86.65 4.6929C86.3144 4.25041 86.036 3.94067 85.4811 3.39678C84.574 2.50627 83.6558 1.90154 82.4002 1.37056C81.2442 0.880134 80.1731 0.631235 78.9101 0.559331C78.7018 0.548268 72.9366 0.540894 62.5897 0.540894H46.5901V5.42669Z" fill="url(#paint13_linear_25_2917)"/>
<path d="M101.057 0.561174C100.194 0.607266 99.3143 0.76398 98.5123 1.01288C96.3791 1.67477 94.4469 3.02066 93.1398 4.75374C92.9904 4.95101 92.6825 5.39719 92.6825 5.41562C92.6825 5.42116 100.911 5.42669 110.968 5.42669L129.252 5.42484L131.354 3.00038C132.51 1.66739 133.46 0.568549 133.461 0.55933C133.469 0.537206 101.455 0.53905 101.057 0.561174Z" fill="url(#paint14_linear_25_2917)"/>
<path d="M142.923 0.561173C141.867 0.625703 140.928 0.859852 140.121 1.26178C139.544 1.54939 139.159 1.82226 138.687 2.28319C138.041 2.91189 137.621 3.56271 137.309 4.42187C137.232 4.63574 137.042 5.32897 137.042 5.39903C137.042 5.423 139.057 5.42669 154.576 5.42669H172.107L174.401 3.00591C175.662 1.67477 176.7 0.575923 176.707 0.563017C176.718 0.546424 172.966 0.540893 159.946 0.542736C150.72 0.54458 143.06 0.553799 142.923 0.561173Z" fill="url(#paint15_linear_25_2917)"/>
<path d="M149.039 9.27442L137.224 9.27995L137.235 9.32236C137.276 9.4551 137.433 9.82384 137.551 10.0543C138.533 11.9902 140.436 13.1867 142.859 13.3914C143.004 13.4025 146.918 13.4098 154.354 13.4098C162.055 13.4098 165.678 13.4154 165.783 13.4283C166.307 13.4946 166.661 13.7675 166.91 14.2985C167.214 14.9493 167.164 15.6813 166.773 16.286C166.598 16.557 166.369 16.7414 166.102 16.8262C166.025 16.852 165.94 16.8797 165.914 16.887C165.888 16.8963 160.363 16.9073 153.635 16.9129L141.404 16.9221L139.498 19.0423C138.45 20.2075 137.51 21.2566 137.409 21.3709L137.224 21.5774L155.722 21.5719C173.088 21.5663 174.235 21.5645 174.45 21.535C175.164 21.4373 175.619 21.3248 176.137 21.122C177.286 20.6685 178.259 19.8738 178.907 18.8616C179.048 18.6385 179.308 18.1168 179.397 17.8716C179.683 17.0954 179.803 16.3653 179.803 15.4102C179.801 13.9353 179.469 12.7867 178.744 11.7505C178.556 11.4832 178.353 11.2509 178.069 10.9762C176.965 9.90865 175.627 9.36292 173.903 9.27995C173.681 9.26889 171.052 9.26336 167.195 9.26705C163.707 9.26889 155.536 9.27258 149.039 9.27442Z" fill="url(#paint16_linear_25_2917)"/>
<path d="M5.66365 9.29655C5.66734 9.30576 7.45757 12.0732 9.64235 15.4453L13.6155 21.5756L29.9359 21.5774L33.7948 15.4526C35.9169 12.0824 37.6573 9.31498 37.661 9.30392C37.6684 9.28364 36.411 9.27995 31.3316 9.28364L24.9948 9.28917L23.5125 11.7505C22.6994 13.1038 22.0246 14.2137 22.0172 14.2174C22.008 14.2192 21.2816 13.1093 20.3985 11.7505L18.7963 9.27995H12.2272C8.33701 9.27995 5.65996 9.28733 5.66365 9.29655Z" fill="url(#paint17_linear_25_2917)"/>
<path d="M46.5901 21.5774H59.7726V9.27995H46.5901V21.5774Z" fill="url(#paint18_linear_25_2917)"/>
<path d="M76.2553 9.28735C76.2553 9.29288 76.283 9.39428 76.318 9.51412C76.4692 10.0396 76.5319 10.4563 76.5448 11.0444C76.5688 12.0603 76.4047 12.8678 76.0064 13.6772C75.634 14.4368 75.103 15.0747 74.3711 15.6463C73.4474 16.3635 72.3652 16.7857 71.1575 16.8944C71.0322 16.9055 69.725 16.9129 67.719 16.9129H64.4834L62.3815 19.2286C61.2255 20.5025 60.276 21.5535 60.2742 21.5608C60.2705 21.5719 64.2123 21.5756 69.677 21.5719C78.5083 21.5682 79.102 21.5645 79.362 21.535C80.6286 21.3857 81.5984 21.1054 82.6806 20.5726C83.8514 19.9974 84.7843 19.3097 85.6693 18.3731C86.604 17.3849 87.2696 16.3856 87.8153 15.1521C88.5768 13.4301 88.8588 11.3947 88.6063 9.44959L88.5841 9.27997H82.4207C79.0301 9.27997 76.2553 9.28366 76.2553 9.28735Z" fill="url(#paint19_linear_25_2917)"/>
<path d="M91.1634 9.50494C91.0103 10.6499 91.0398 11.8778 91.2445 12.9951C91.4934 14.3502 91.9967 15.5891 92.7877 16.7931C93.6782 18.1463 94.7586 19.1788 96.204 20.0601C97.679 20.958 99.2037 21.4373 100.961 21.559C101.134 21.5701 106.127 21.5775 115.268 21.5756H129.308L133.528 16.9221L121.885 16.9129C111.16 16.9037 110.229 16.9 110.048 16.8724C109.291 16.7544 108.787 16.6032 108.253 16.3322C107.237 15.8196 106.56 15.2278 105.985 14.3502C105.439 13.5187 105.118 12.6595 105.006 11.7321C104.969 11.4371 104.965 10.7716 104.997 10.4692C105.035 10.1041 105.157 9.49573 105.229 9.31136C105.242 9.28186 104.901 9.28001 98.2173 9.28001H91.1947L91.1634 9.50494Z" fill="url(#paint20_linear_25_2917)"/>
<path d="M108.326 11.3302C107.211 12.4567 106.296 13.3859 106.293 13.3951C106.289 13.4025 110.188 13.4099 114.958 13.4099H123.629L125.353 11.4168C126.3 10.3198 127.104 9.39061 127.138 9.35189L127.2 9.27999H110.354L108.326 11.3302Z" fill="url(#paint21_linear_25_2917)"/>
</mask>
<g mask="url(#mask0_25_2917)">
<g style="mix-blend-mode:hard-light" opacity="0.4">
<rect x="-6" y="61" width="192" height="192" transform="rotate(-90 -6 61)" fill="url(#paint22_angular_25_2917)"/>
</g>
</g>
<path d="M90.249 30.9619V34.7783H90.9312H91.6134V30.9619V27.1454H90.9312H90.249V30.9619Z" fill="white"/>
<path d="M178.636 30.9619V34.7783H179.318H180V30.9619V27.1454H179.318H178.636V30.9619Z" fill="white"/>
<path d="M65.5672 27.3188C65.1948 27.4589 64.9588 27.859 65.0233 28.2332C65.1358 28.8693 65.8732 29.1569 66.3747 28.7605C66.6974 28.508 66.7822 28.0378 66.5702 27.6765C66.5001 27.5566 66.3342 27.4091 66.194 27.3427C66.0816 27.2911 66.0484 27.2837 65.8751 27.2801C65.7092 27.2745 65.6649 27.2801 65.5672 27.3188Z" fill="white"/>
<path d="M107.773 27.3077C107.63 27.3575 107.519 27.4294 107.418 27.5419C107.15 27.835 107.119 28.248 107.34 28.5799C107.626 29.0057 108.231 29.0647 108.61 28.7034C108.732 28.5872 108.802 28.4711 108.843 28.3162C108.953 27.8903 108.701 27.4404 108.279 27.3095C108.135 27.2653 107.901 27.2635 107.773 27.3077Z" fill="white"/>
<path d="M116.743 27.3077C116.525 27.3796 116.359 27.5289 116.25 27.7502C116.18 27.8885 116.18 27.8921 116.18 28.1115C116.18 28.3236 116.182 28.3402 116.239 28.46C116.317 28.6241 116.479 28.7863 116.636 28.8601C117.06 29.0574 117.552 28.8822 117.758 28.4637C117.819 28.3383 117.821 28.3291 117.821 28.1134C117.821 27.894 117.821 27.8885 117.753 27.752C117.664 27.5713 117.533 27.4404 117.355 27.3519C117.226 27.2893 117.202 27.2837 117.03 27.28C116.888 27.2764 116.82 27.2819 116.743 27.3077Z" fill="white"/>
<path d="M100.223 28.7956V30.1323L100.081 29.9884C99.8326 29.7377 99.5265 29.5662 99.1725 29.4759C98.9144 29.4114 98.3908 29.3929 98.129 29.439C97.6238 29.5257 97.1961 29.7506 96.82 30.1212C96.3793 30.5581 96.1304 31.0393 96.0272 31.6533C95.9885 31.8782 95.9829 32.4166 96.018 32.6305C96.1157 33.2518 96.348 33.733 96.7554 34.1552C97.2348 34.6567 97.7547 34.8927 98.4277 34.9203C99.1393 34.948 99.6574 34.7691 100.076 34.3488L100.223 34.2031V34.4907V34.7784H100.906H101.588V31.1186V27.4589H100.906H100.223V28.7956ZM99.1725 30.7517C99.6482 30.8697 100.039 31.2643 100.17 31.7547C100.227 31.9649 100.231 32.341 100.179 32.5475C100.05 33.0674 99.6832 33.4491 99.1799 33.5818C98.9752 33.6353 98.6157 33.6371 98.4074 33.5818C97.8948 33.4472 97.539 33.0914 97.4007 32.5751C97.3694 32.459 97.362 32.3742 97.3602 32.1695C97.3602 31.8653 97.3952 31.7068 97.5169 31.4597C97.657 31.1721 98.0018 30.8771 98.3134 30.7775C98.553 30.7001 98.9236 30.689 99.1725 30.7517Z" fill="white"/>
<path d="M158.982 31.1186V34.7783H159.664H160.346V33.3071C160.346 31.6883 160.352 31.6072 160.457 31.3361C160.556 31.078 160.722 30.8992 160.964 30.7867C161.13 30.7093 161.272 30.6798 161.489 30.6798C161.803 30.6798 162.033 30.7664 162.219 30.9527C162.35 31.0817 162.417 31.2034 162.468 31.4007C162.502 31.5334 162.503 31.6182 162.503 33.1596V34.7783H163.186H163.868V33.0379C163.868 31.8929 163.86 31.2476 163.847 31.1536C163.739 30.37 163.281 29.7635 162.618 29.5238C162.365 29.4316 162.175 29.4076 161.803 29.4187C161.604 29.4242 161.427 29.4408 161.342 29.4593C160.958 29.5441 160.636 29.7413 160.405 30.0308L160.346 30.1046V28.7808V27.4588H159.664H158.982V31.1186Z" fill="white"/>
<path d="M73.5693 28.2941L72.9 28.4969V29.0205V29.5422H72.4483H71.9966V30.206V30.8697H72.4464H72.8981L72.9055 32.164C72.9111 33.4251 72.9129 33.4656 72.9535 33.6426C73.0604 34.1238 73.2669 34.4243 73.6153 34.6087C73.9454 34.7839 74.4303 34.8539 75.0479 34.8152C75.2304 34.8041 75.3945 34.7912 75.413 34.7857C75.4424 34.7765 75.4443 34.7304 75.4443 34.1607V33.5449L75.1733 33.556C74.6109 33.5762 74.3694 33.4877 74.292 33.2259C74.268 33.1448 74.2643 32.966 74.2643 31.9999V30.8697H74.8543H75.4443V30.206V29.5422H74.8543H74.2643V28.814C74.2643 28.4139 74.2588 28.0857 74.2514 28.0876C74.2422 28.0894 73.9361 28.1816 73.5693 28.2941Z" fill="white"/>
<path d="M85.1381 29.4426C84.5113 29.5551 83.9434 29.933 83.5341 30.5101C83.3276 30.7996 83.1783 31.1462 83.1009 31.5149C83.0455 31.7786 83.0234 32.2598 83.0566 32.5419C83.1525 33.3568 83.571 34.0721 84.2126 34.5128C84.6016 34.782 84.9685 34.9 85.4663 34.9202C85.7834 34.9331 86.0121 34.9092 86.272 34.841C86.5983 34.7543 86.9523 34.5423 87.168 34.3063L87.2621 34.203V34.4907V34.7783H87.9442H88.6264V32.1602V29.5422H87.9442H87.2621V29.8353V30.1303L87.157 30.0178C86.8675 29.7155 86.4711 29.5145 86.0213 29.4408C85.8092 29.4057 85.3317 29.4076 85.1381 29.4426ZM86.2001 30.7498C86.4748 30.8217 86.6444 30.9231 86.8565 31.1351C87.1625 31.4449 87.2768 31.7601 87.2565 32.2432C87.2455 32.5161 87.216 32.6414 87.1146 32.8516C86.9081 33.2812 86.5062 33.5577 86.0084 33.6167C85.2432 33.7052 84.585 33.2425 84.4338 32.505C84.397 32.3243 84.397 32.0146 84.4338 31.832C84.4928 31.5407 84.6053 31.3324 84.8192 31.1185C85.0367 30.9028 85.2506 30.7867 85.5401 30.7314C85.7152 30.6982 86.0397 30.7074 86.2001 30.7498Z" fill="white"/>
<path d="M121.776 29.4408C121.312 29.5256 120.991 29.71 120.709 30.0585L120.672 30.1046L120.67 29.8225V29.5422H119.988H119.306V32.1603V34.7783H119.988H120.67V33.3605C120.67 32.5124 120.677 31.8671 120.688 31.7565C120.747 31.185 121.02 30.8328 121.5 30.7111C121.642 30.6743 121.927 30.6706 122.08 30.7019C122.438 30.7775 122.704 31.0356 122.803 31.408C122.831 31.5113 122.834 31.6993 122.84 33.1503L122.847 34.7783H123.53H124.212L124.204 33.0121C124.197 31.0485 124.199 31.0928 124.068 30.7001C123.847 30.0308 123.308 29.5588 122.626 29.4408C122.434 29.4058 121.966 29.4076 121.776 29.4408Z" fill="white"/>
<path d="M127.722 29.4261C127.15 29.4998 126.621 29.7746 126.214 30.206C125.806 30.6393 125.567 31.15 125.499 31.727C125.469 31.9815 125.487 32.4498 125.537 32.6858C125.709 33.4914 126.208 34.1515 126.913 34.4999C127.25 34.6659 127.549 34.7378 127.971 34.7544C128.423 34.771 128.719 34.7175 129.049 34.5589C129.304 34.4354 129.433 34.3377 129.656 34.098L129.745 34.0003L129.735 34.4041C129.728 34.747 129.721 34.8263 129.687 34.9443C129.628 35.1434 129.545 35.2872 129.409 35.4255C129.162 35.6744 128.834 35.7924 128.375 35.7924C127.794 35.7924 127.366 35.5877 127.093 35.1766C127.056 35.1194 127.016 35.0733 127.005 35.077C126.951 35.0918 125.869 35.7242 125.869 35.7408C125.869 35.7924 126.098 36.0966 126.254 36.2551C126.638 36.6386 127.095 36.858 127.75 36.976C127.842 36.9926 128.041 37 128.349 37C128.778 36.9982 128.826 36.9945 129.042 36.9484C129.601 36.8304 130.071 36.5852 130.434 36.2256C130.735 35.9288 130.91 35.6025 131.019 35.1379C131.057 34.9738 131.057 34.9406 131.063 32.2562L131.07 29.5423H130.405H129.741V29.8465V30.1525L129.58 29.9903C129.274 29.6824 128.952 29.5164 128.517 29.4408C128.365 29.415 127.877 29.4058 127.722 29.4261ZM128.448 30.6853C128.865 30.7296 129.184 30.8974 129.451 31.2182C129.54 31.3251 129.656 31.5611 129.698 31.7178C129.748 31.9022 129.743 32.2894 129.689 32.4811C129.523 33.0656 129.04 33.4472 128.408 33.4988C128.117 33.5209 127.752 33.4417 127.516 33.3015C127.377 33.2186 127.173 33.0268 127.082 32.8922C126.911 32.6415 126.837 32.3557 126.852 32.0146C126.863 31.7621 126.894 31.6348 126.997 31.4228C127.101 31.209 127.34 30.9674 127.556 30.8568C127.74 30.7628 127.932 30.7038 128.117 30.6853C128.194 30.678 128.259 30.6706 128.259 30.6687C128.26 30.6687 128.345 30.6761 128.448 30.6853Z" fill="white"/>
<path d="M137.807 29.4243C137.141 29.5238 136.658 29.7561 136.244 30.1765C135.888 30.5342 135.668 30.914 135.549 31.3767C135.475 31.6551 135.453 31.845 135.453 32.1787C135.454 33.0121 135.713 33.6445 136.273 34.1828C136.708 34.6014 137.223 34.83 137.908 34.9093C138.152 34.9369 138.686 34.9222 138.922 34.8798C139.302 34.8134 139.697 34.6493 139.996 34.4336C140.154 34.3193 140.447 34.0261 140.541 33.8897L140.6 33.803L140.56 33.7754C140.482 33.7274 139.549 33.1928 139.527 33.1836C139.514 33.178 139.439 33.2352 139.361 33.3108C139.122 33.5431 138.827 33.6611 138.432 33.685C137.669 33.7274 137.114 33.4177 136.913 32.8333L136.878 32.7318H138.838H140.799L140.81 32.6894C140.845 32.5567 140.864 32.1363 140.844 31.9003C140.779 31.1721 140.536 30.6393 140.038 30.1396C139.669 29.769 139.328 29.581 138.821 29.4648C138.688 29.4353 138.576 29.4261 138.259 29.4224C138.041 29.4187 137.838 29.4206 137.807 29.4243ZM138.591 30.6872C138.97 30.7923 139.265 31.0615 139.417 31.4413C139.439 31.4966 139.463 31.5703 139.468 31.6017L139.481 31.6625H138.168C137.448 31.6625 136.858 31.6588 136.858 31.6533C136.858 31.6496 136.882 31.5777 136.913 31.4966C137.094 30.9988 137.449 30.7259 138.028 30.6411C138.144 30.6245 138.456 30.6485 138.591 30.6872Z" fill="white"/>
<path d="M149.256 29.4427C148.67 29.546 148.163 29.8686 147.931 30.2853C147.745 30.619 147.691 31.0781 147.792 31.4726C147.844 31.6754 147.945 31.8524 148.102 32.0184C148.386 32.3152 148.72 32.4793 149.439 32.6766C149.981 32.8241 150.163 32.8978 150.3 33.0213C150.405 33.1172 150.433 33.1781 150.423 33.2979C150.401 33.5652 150.127 33.7053 149.662 33.6851C149.227 33.6666 148.936 33.4952 148.773 33.1596C148.736 33.0822 148.703 33.0158 148.701 33.0121C148.7 33.0084 148.128 33.3274 147.61 33.6205L147.512 33.6759L147.59 33.816C147.846 34.2916 148.229 34.6124 148.755 34.7876C149.076 34.8945 149.238 34.9167 149.717 34.9148C150.084 34.9148 150.167 34.9093 150.329 34.8743C150.938 34.7415 151.389 34.4594 151.624 34.0649C151.885 33.6224 151.893 32.9365 151.642 32.4977C151.609 32.4406 151.524 32.3318 151.452 32.2562C151.168 31.9575 150.812 31.7805 150.187 31.6275C149.546 31.4708 149.264 31.3417 149.172 31.161C149.087 30.9933 149.17 30.8144 149.384 30.7038C149.492 30.6485 149.527 30.6393 149.679 30.6338C149.773 30.6301 149.894 30.6356 149.946 30.6467C150.173 30.6946 150.37 30.8366 150.482 31.032C150.517 31.0947 150.556 31.1463 150.569 31.1463C150.6 31.1463 151.718 30.5342 151.718 30.5158C151.718 30.5065 151.675 30.4365 151.624 30.3609C151.297 29.876 150.774 29.5478 150.162 29.4409C149.957 29.4059 149.461 29.4059 149.256 29.4427Z" fill="white"/>
<path d="M155.008 29.4409C154.147 29.581 153.415 30.1212 153.028 30.9011C152.818 31.327 152.735 31.7418 152.755 32.2875C152.783 33.0287 153.014 33.591 153.497 34.0925C153.952 34.5682 154.472 34.8263 155.136 34.9093C155.385 34.9388 155.858 34.9203 156.091 34.8724C156.659 34.7507 157.199 34.4373 157.556 34.0224C157.676 33.8823 157.875 33.5984 157.875 33.5689C157.874 33.5597 157.61 33.4011 157.285 33.2167L156.695 32.883L156.631 32.99C156.539 33.1412 156.321 33.3384 156.157 33.4195C155.932 33.5302 155.762 33.5689 155.497 33.5689C155.09 33.5689 154.796 33.4546 154.525 33.1928C154.238 32.9125 154.094 32.518 154.12 32.0718C154.157 31.4339 154.54 30.9527 155.139 30.7941C155.338 30.7407 155.652 30.7407 155.853 30.7941C156.159 30.8752 156.446 31.0762 156.607 31.3233C156.647 31.3878 156.688 31.4413 156.694 31.4413C156.705 31.4413 157.835 30.7849 157.855 30.7665C157.868 30.7536 157.708 30.501 157.602 30.3682C157.248 29.9257 156.749 29.6197 156.142 29.474C155.974 29.4335 155.897 29.4279 155.562 29.4206C155.283 29.4169 155.128 29.4224 155.008 29.4409Z" fill="white"/>
<path d="M167.389 29.45C166.895 29.5385 166.467 29.745 166.089 30.0714C165.63 30.4714 165.326 30.9877 165.201 31.5887C165.175 31.7122 165.167 31.8339 165.167 32.1695C165.167 32.5456 165.173 32.6157 165.21 32.7834C165.335 33.3439 165.588 33.7938 165.992 34.181C166.55 34.7138 167.197 34.9498 168.031 34.9203C168.735 34.8963 169.279 34.6806 169.786 34.227C170.238 33.8233 170.542 33.2683 170.647 32.6581C170.689 32.4184 170.688 31.8985 170.645 31.668C170.593 31.3841 170.529 31.1849 170.404 30.9342C170.029 30.1838 169.338 29.6436 168.523 29.4648C168.272 29.4095 167.653 29.4003 167.389 29.45ZM168.215 30.7701C168.512 30.831 168.73 30.9563 168.949 31.1886C169.106 31.3546 169.227 31.5795 169.281 31.8007C169.325 31.9814 169.325 32.3649 169.281 32.5382C169.176 32.9383 168.912 33.2702 168.56 33.4435C168.363 33.5393 168.228 33.5762 168.014 33.5928C167.594 33.6223 167.183 33.4693 166.906 33.1798C166.718 32.9807 166.611 32.7779 166.55 32.505C166.51 32.3244 166.519 31.9151 166.567 31.7454C166.685 31.3232 167.013 30.9655 167.415 30.8199C167.634 30.7406 167.972 30.7203 168.215 30.7701Z" fill="white"/>
<path d="M174.147 29.4243C173.514 29.5183 173.038 29.7469 172.602 30.1691C172.356 30.4033 172.2 30.6098 172.067 30.8679C171.94 31.1131 171.864 31.327 171.811 31.5925C171.776 31.7676 171.77 31.8598 171.77 32.1695C171.77 32.5844 171.803 32.8148 171.908 33.1153C172.187 33.9008 172.826 34.5368 173.593 34.7876C173.92 34.8927 174.076 34.9148 174.525 34.9148C174.884 34.9148 174.965 34.9093 175.127 34.8742C175.638 34.7636 176.064 34.5387 176.429 34.1902C176.776 33.8584 176.995 33.5246 177.141 33.1135C177.253 32.7927 177.279 32.6194 177.279 32.1695C177.279 31.7197 177.255 31.5519 177.141 31.2256C176.881 30.4862 176.239 29.8373 175.502 29.5699C175.192 29.4575 175.009 29.428 174.589 29.4224C174.377 29.4187 174.178 29.4206 174.147 29.4243ZM174.939 30.796C175.402 30.9416 175.741 31.2864 175.874 31.7455C175.929 31.9409 175.935 32.3779 175.883 32.5659C175.749 33.0471 175.354 33.4398 174.884 33.556C174.687 33.6039 174.318 33.6002 174.132 33.5468C173.481 33.3606 173.085 32.7761 173.129 32.07C173.149 31.7676 173.23 31.5261 173.389 31.3067C173.584 31.0301 173.866 30.8458 174.204 30.7702C174.388 30.7278 174.766 30.7425 174.939 30.796Z" fill="white"/>
<path d="M70.7705 29.4703C70.4257 29.5201 70.0791 29.6897 69.8468 29.9239C69.7435 30.0253 69.6034 30.2262 69.5536 30.3387C69.5296 30.394 69.5278 30.3571 69.526 29.97V29.5422H68.8438H68.1616V32.1603V34.7783H68.8438H69.5241L69.5296 33.39C69.537 32.0202 69.537 32.0017 69.5776 31.8561C69.655 31.5758 69.7749 31.3915 69.9721 31.2458C70.2376 31.0504 70.5326 30.9582 70.8921 30.96H71.1115V30.206V29.45L70.9972 29.4519C70.9327 29.4537 70.8313 29.4611 70.7705 29.4703Z" fill="white"/>
<path d="M105.787 29.4777C105.264 29.5662 104.849 29.8575 104.628 30.2963L104.574 30.3995V29.97V29.5422H103.892H103.21V32.1603V34.7783H103.892H104.574V33.4914C104.574 32.1252 104.582 31.9925 104.661 31.751C104.821 31.2661 105.317 30.9582 105.94 30.96H106.16V30.206V29.45L106.046 29.4519C105.981 29.4537 105.865 29.4648 105.787 29.4777Z" fill="white"/>
<path d="M58.6108 29.557C58.6108 29.5662 59.0552 30.7425 59.5972 32.1695C60.1393 33.5965 60.5836 34.7673 60.5836 34.7709C60.5836 34.7746 60.9339 34.7783 61.3635 34.7783H62.1434L63.1334 32.1732C63.6773 30.7406 64.1235 29.5625 64.1235 29.5551C64.1235 29.5478 63.7861 29.5441 63.3731 29.5459L62.6246 29.5514L61.9959 31.3527C61.6511 32.3428 61.3635 33.1503 61.3579 33.1448C61.3524 33.1393 61.0703 32.328 60.7292 31.3435L60.1079 29.5514L59.3594 29.5459C58.9482 29.5441 58.6108 29.5496 58.6108 29.557Z" fill="white"/>
<path d="M65.1743 32.1603V34.7783H65.8565H66.5387V32.1603V29.5422H65.8565H65.1743V32.1603Z" fill="white"/>
<path d="M76.7955 31.362C76.801 33.1651 76.801 33.1854 76.8416 33.3642C76.989 34.0132 77.3228 34.463 77.8501 34.7249C78.1174 34.8576 78.3368 34.9092 78.6816 34.9203C79.3895 34.9461 79.9039 34.7451 80.2524 34.3082L80.3114 34.2344V34.5073V34.7783H80.9936H81.6757V32.1603V29.5422H80.9936H80.3114V31.0485C80.3095 32.2469 80.304 32.5862 80.2856 32.6986C80.1731 33.3273 79.7933 33.6537 79.1794 33.6537C78.7479 33.6537 78.4271 33.4748 78.2741 33.1522C78.1524 32.8977 78.1543 32.9309 78.1543 31.1499V29.5422H77.4721H76.7881L76.7955 31.362Z" fill="white"/>
<path d="M107.34 32.1603V34.7783H108.022H108.704V32.1603V29.5422H108.022H107.34V32.1603Z" fill="white"/>
<path d="M109.759 29.5643C109.763 29.5773 110.211 30.7554 110.753 32.1824L111.737 34.7783H112.513C113.238 34.7783 113.291 34.7765 113.304 34.7451C113.446 34.3819 115.268 29.5736 115.268 29.5607C115.268 29.5478 115.021 29.5422 114.523 29.5422H113.778L113.752 29.6104C113.738 29.6492 113.452 30.4659 113.118 31.4265C112.784 32.3852 112.51 33.1651 112.506 33.1596C112.504 33.1522 112.22 32.3373 111.879 31.349L111.258 29.5514L110.504 29.5459C109.905 29.5422 109.753 29.5459 109.759 29.5643Z" fill="white"/>
<path d="M116.319 32.1603V34.7783H117.001H117.683V32.1603V29.5422H117.001H116.319V32.1603Z" fill="white"/>
<path d="M142.26 31.6257V32.2894H144.223H146.187V31.6257V30.962H144.223H142.26V31.6257Z" fill="white"/>
<defs>
<linearGradient id="paint0_linear_25_2917" x1="106.292" y1="11.345" x2="127.2" y2="11.345" gradientUnits="userSpaceOnUse">
<stop offset="0.280779" stop-color="#C80000"/>
<stop offset="1" stop-color="#FF3131"/>
</linearGradient>
<linearGradient id="paint1_linear_25_2917" x1="106.292" y1="11.345" x2="127.2" y2="11.345" gradientUnits="userSpaceOnUse">
<stop offset="0.280779" stop-color="#C80000"/>
<stop offset="1" stop-color="#FF3131"/>
</linearGradient>
<linearGradient id="paint2_linear_25_2917" x1="106.292" y1="11.345" x2="127.2" y2="11.345" gradientUnits="userSpaceOnUse">
<stop offset="0.280779" stop-color="#C80000"/>
<stop offset="1" stop-color="#FF3131"/>
</linearGradient>
<linearGradient id="paint3_linear_25_2917" x1="106.292" y1="11.345" x2="127.2" y2="11.345" gradientUnits="userSpaceOnUse">
<stop offset="0.280779" stop-color="#C80000"/>
<stop offset="1" stop-color="#FF3131"/>
</linearGradient>
<linearGradient id="paint4_linear_25_2917" x1="106.292" y1="11.345" x2="127.2" y2="11.345" gradientUnits="userSpaceOnUse">
<stop offset="0.280779" stop-color="#C80000"/>
<stop offset="1" stop-color="#FF3131"/>
</linearGradient>
<linearGradient id="paint5_linear_25_2917" x1="106.292" y1="11.345" x2="127.2" y2="11.345" gradientUnits="userSpaceOnUse">
<stop offset="0.280779" stop-color="#C80000"/>
<stop offset="1" stop-color="#FF3131"/>
</linearGradient>
<linearGradient id="paint6_linear_25_2917" x1="106.292" y1="11.345" x2="127.2" y2="11.345" gradientUnits="userSpaceOnUse">
<stop offset="0.280779" stop-color="#C80000"/>
<stop offset="1" stop-color="#FF3131"/>
</linearGradient>
<linearGradient id="paint7_linear_25_2917" x1="106.292" y1="11.345" x2="127.2" y2="11.345" gradientUnits="userSpaceOnUse">
<stop offset="0.280779" stop-color="#C80000"/>
<stop offset="1" stop-color="#FF3131"/>
</linearGradient>
<linearGradient id="paint8_linear_25_2917" x1="106.292" y1="11.345" x2="127.2" y2="11.345" gradientUnits="userSpaceOnUse">
<stop offset="0.280779" stop-color="#C80000"/>
<stop offset="1" stop-color="#FF3131"/>
</linearGradient>
<linearGradient id="paint9_linear_25_2917" x1="106.292" y1="11.345" x2="127.2" y2="11.345" gradientUnits="userSpaceOnUse">
<stop offset="0.280779" stop-color="#C80000"/>
<stop offset="1" stop-color="#FF3131"/>
</linearGradient>
<linearGradient id="paint10_linear_25_2917" x1="106.292" y1="11.345" x2="127.2" y2="11.345" gradientUnits="userSpaceOnUse">
<stop offset="0.280779" stop-color="#C80000"/>
<stop offset="1" stop-color="#FF3131"/>
</linearGradient>
<linearGradient id="paint11_linear_25_2917" x1="106.292" y1="11.345" x2="127.2" y2="11.345" gradientUnits="userSpaceOnUse">
<stop offset="0.280779" stop-color="#C80000"/>
<stop offset="1" stop-color="#FF3131"/>
</linearGradient>
<linearGradient id="paint12_linear_25_2917" x1="106.292" y1="11.345" x2="127.2" y2="11.345" gradientUnits="userSpaceOnUse">
<stop offset="0.280779" stop-color="#C80000"/>
<stop offset="1" stop-color="#FF3131"/>
</linearGradient>
<linearGradient id="paint13_linear_25_2917" x1="106.292" y1="11.345" x2="127.2" y2="11.345" gradientUnits="userSpaceOnUse">
<stop offset="0.280779" stop-color="#C80000"/>
<stop offset="1" stop-color="#FF3131"/>
</linearGradient>
<linearGradient id="paint14_linear_25_2917" x1="106.292" y1="11.345" x2="127.2" y2="11.345" gradientUnits="userSpaceOnUse">
<stop offset="0.280779" stop-color="#C80000"/>
<stop offset="1" stop-color="#FF3131"/>
</linearGradient>
<linearGradient id="paint15_linear_25_2917" x1="106.292" y1="11.345" x2="127.2" y2="11.345" gradientUnits="userSpaceOnUse">
<stop offset="0.280779" stop-color="#C80000"/>
<stop offset="1" stop-color="#FF3131"/>
</linearGradient>
<linearGradient id="paint16_linear_25_2917" x1="106.292" y1="11.345" x2="127.2" y2="11.345" gradientUnits="userSpaceOnUse">
<stop offset="0.280779" stop-color="#C80000"/>
<stop offset="1" stop-color="#FF3131"/>
</linearGradient>
<linearGradient id="paint17_linear_25_2917" x1="106.292" y1="11.345" x2="127.2" y2="11.345" gradientUnits="userSpaceOnUse">
<stop offset="0.280779" stop-color="#C80000"/>
<stop offset="1" stop-color="#FF3131"/>
</linearGradient>
<linearGradient id="paint18_linear_25_2917" x1="106.292" y1="11.345" x2="127.2" y2="11.345" gradientUnits="userSpaceOnUse">
<stop offset="0.280779" stop-color="#C80000"/>
<stop offset="1" stop-color="#FF3131"/>
</linearGradient>
<linearGradient id="paint19_linear_25_2917" x1="106.292" y1="11.345" x2="127.2" y2="11.345" gradientUnits="userSpaceOnUse">
<stop offset="0.280779" stop-color="#C80000"/>
<stop offset="1" stop-color="#FF3131"/>
</linearGradient>
<linearGradient id="paint20_linear_25_2917" x1="106.292" y1="11.345" x2="127.2" y2="11.345" gradientUnits="userSpaceOnUse">
<stop offset="0.280779" stop-color="#C80000"/>
<stop offset="1" stop-color="#FF3131"/>
</linearGradient>
<linearGradient id="paint21_linear_25_2917" x1="106.292" y1="11.345" x2="127.2" y2="11.345" gradientUnits="userSpaceOnUse">
<stop offset="0.280779" stop-color="#C80000"/>
<stop offset="1" stop-color="#FF3131"/>
</linearGradient>
<radialGradient id="paint22_angular_25_2917" cx="0" cy="0" r="1" gradientUnits="userSpaceOnUse" gradientTransform="translate(90 157) rotate(90) scale(96)">
<stop/>
<stop offset="0.2" stop-color="white"/>
<stop offset="0.5"/>
<stop offset="0.8" stop-color="white"/>
<stop offset="0.999082"/>
</radialGradient>
</defs>
</svg>
