<?xml version="1.0"?>
<svg xmlns="http://www.w3.org/2000/svg" xmlns:xlink="http://www.w3.org/1999/xlink" version="1.1" xml:space="preserve">
  <defs>

    <symbol id="loader" width="100%" height="100%" viewBox="22 22 44 44">
      <circle cx="44" cy="44" r="20.2" fill="transparent" stroke="currentColor" stroke-width="4"></circle>
    </symbol>

    <symbol id="sun" width="100%" height="100%" viewBox="0 0 16 16">
      <path d="M8 11.75C10.0711 11.75 11.75 10.0711 11.75 8C11.75 5.92893 10.0711 4.25 8 4.25C5.92893 4.25 4.25 5.92893 4.25 8C4.25 10.0711 5.92893 11.75 8 11.75Z" fill="transparent" stroke="currentColor" stroke-linecap="round" stroke-linejoin="round" />
      <path d="M8 2.25V1" fill="transparent" stroke="currentColor" stroke-linecap="round" stroke-linejoin="round" />
      <path d="M3.93124 3.93105L3.04999 3.0498" fill="transparent" stroke="currentColor" stroke-linecap="round" stroke-linejoin="round" />
      <path d="M2.25 8H1" fill="transparent" stroke="currentColor" stroke-linecap="round" stroke-linejoin="round" />
      <path d="M3.93124 12.0688L3.04999 12.9501" fill="transparent" stroke="currentColor" stroke-linecap="round" stroke-linejoin="round" />
      <path d="M8 13.75V15" fill="transparent" stroke="currentColor" stroke-linecap="round" stroke-linejoin="round" />
      <path d="M12.0688 12.0688L12.95 12.9501" fill="transparent" stroke="currentColor" stroke-linecap="round" stroke-linejoin="round" />
      <path d="M13.75 8H15" fill="transparent" stroke="currentColor" stroke-linecap="round" stroke-linejoin="round" />
      <path d="M12.0688 3.93105L12.95 3.0498" fill="transparent" stroke="currentColor" stroke-linecap="round" stroke-linejoin="round" />
    </symbol>

    <symbol id="moon" width="100%" height="100%" viewBox="0 0 16 16">
      <path d="M13.5438 9.5373C12.5621 9.81258 11.5248 9.8216 10.5385 9.56344C9.55223 9.30528 8.65241 8.78924 7.9315 8.06832C7.21058 7.3474 6.69454 6.44759 6.43638 5.46128C6.17822 4.47497 6.18724 3.43772 6.46251 2.45605C5.49468 2.72544 4.61431 3.24369 3.9091 3.9592C3.2039 4.67471 2.69846 5.56249 2.44313 6.53413C2.18781 7.50577 2.19151 8.52735 2.45387 9.49711C2.71623 10.4669 3.22809 11.351 3.93847 12.0613C4.64885 12.7717 5.53295 13.2836 6.50271 13.5459C7.47247 13.8083 8.49405 13.812 9.46569 13.5567C10.4373 13.3014 11.3251 12.7959 12.0406 12.0907C12.7561 11.3855 13.2744 10.5051 13.5438 9.5373Z" fill="transparent" stroke="currentColor" stroke-linecap="round" stroke-linejoin="round" />
    </symbol>

    <symbol id="wheel" width="100%" height="100%" viewBox="0 0 24 24">
      <path fill-rule="evenodd" clip-rule="evenodd" d="M11.9985 24C5.38213 24 0 18.6162 0 12C0 5.38376 5.38213 0 11.9985 0C18.6164 0 24 5.38376 24 12C24 18.6162 18.6164 24 11.9985 24ZM12 3C7.03625 3 3 7.03727 3 12C3 16.9627 7.03771 21 12 21C16.9623 21 21 16.9627 21 12C21 7.03727 16.9638 3 12 3Z" fill="currentColor" />
      <path fill-rule="evenodd" clip-rule="evenodd" d="M11.9879 9C8.51389 9 5.84089 10.1955 4.54639 12.519C4.60189 13.2285 4.77739 13.911 5.05039 14.547C6.88189 13.569 10.3769 17.292 9.27739 18.9495C10.1474 19.2555 10.9889 19.482 11.9729 19.482C12.9404 19.482 13.9484 19.305 14.8034 19.0095C13.7024 17.352 17.0909 13.707 18.9344 14.706C19.2164 14.049 19.3979 13.347 19.4504 12.612C18.1424 10.3125 15.4394 9 11.9879 9ZM12.0029 13.734C11.0654 13.734 10.3124 12.969 10.3124 12.0225C10.3124 11.076 11.0654 10.311 12.0029 10.311C12.9314 10.311 13.6874 11.076 13.6874 12.0225C13.6874 12.969 12.9314 13.734 12.0029 13.734Z" fill="currentColor" />
    </symbol>

    <symbol id="basket" width="100%" height="100%" viewBox="0 0 25 24">
      <path d="M3.05657 2.07026C2.5589 2.24468 2.34063 2.88169 2.62875 3.35186C2.80337 3.64762 2.93434 3.68554 3.89475 3.73862L4.71547 3.77654L6.64503 9.88123C7.70148 13.2407 8.61824 16.0618 8.67936 16.1528C8.88017 16.4713 9.49135 16.8504 9.95409 16.9339C10.2597 16.9945 11.9797 17.0097 15.4634 16.9945C20.2043 16.9718 20.5448 16.9642 20.833 16.8277C21.2171 16.6533 21.6799 16.2741 21.837 16.0163C21.9069 15.9101 22.5268 14.1659 23.234 12.1411C24.1071 9.59306 24.5 8.35696 24.5 8.09912C24.5 7.62894 24.2381 7.1436 23.819 6.84784C23.1729 6.38525 23.365 6.39284 15.1491 6.39284H7.65783L7.48321 5.87716C7.38717 5.59657 7.15143 4.87614 6.95061 4.26946C6.75853 3.66279 6.54899 3.07886 6.4966 2.96511C6.36564 2.66177 5.71081 2.16884 5.32664 2.07784C4.92501 1.97926 3.3185 1.97167 3.05657 2.07026Z" fill="currentColor" />
      <path d="M10.3829 18.4131C9.58577 18.5615 9.03092 19.1945 8.98403 20.0229C8.93714 20.6793 9.10907 21.1248 9.55451 21.5155C10.1406 22.0313 10.8283 22.1329 11.5082 21.8125C11.9771 21.5937 12.1881 21.3749 12.3991 20.906C12.6882 20.2652 12.5788 19.5384 12.1177 19.0226C11.6332 18.4912 11.0628 18.288 10.3829 18.4131Z" fill="currentColor" />
      <path d="M18.6426 18.413C17.6267 18.6084 16.939 19.8822 17.3375 20.8512C17.611 21.4999 18.3534 22 19.0333 22C19.7601 22 20.5416 21.4295 20.7448 20.7575C21.1511 19.3899 20.0492 18.1551 18.6426 18.413Z" fill="currentColor" />
    </symbol>

    <symbol id="burger" width="100%" height="100%" viewBox="0 0 32 32">
      <path fill-rule="evenodd" clip-rule="evenodd" d="M27.6665 9.33337C27.6665 9.88566 27.2188 10.3334 26.6665 10.3334L5.33317 10.3334C4.78089 10.3334 4.33317 9.88566 4.33317 9.33337C4.33317 8.78109 4.78089 8.33337 5.33317 8.33337L26.6665 8.33337C27.2188 8.33337 27.6665 8.78109 27.6665 9.33337Z" fill="currentColor" />
      <path fill-rule="evenodd" clip-rule="evenodd" d="M27.6665 16C27.6665 16.5523 27.2188 17 26.6665 17L5.33317 17C4.78089 17 4.33317 16.5523 4.33317 16C4.33317 15.4477 4.78089 15 5.33317 15L26.6665 15C27.2188 15 27.6665 15.4477 27.6665 16Z" fill="currentColor" />
      <path fill-rule="evenodd" clip-rule="evenodd" d="M27.6665 22.6666C27.6665 23.2189 27.2188 23.6666 26.6665 23.6666L5.33317 23.6666C4.78089 23.6666 4.33317 23.2189 4.33317 22.6666C4.33317 22.1143 4.78089 21.6666 5.33317 21.6666L26.6665 21.6666C27.2188 21.6666 27.6665 22.1143 27.6665 22.6666Z" fill="currentColor" />
    </symbol>

    <symbol id="close" width="100%" height="100%" viewBox="0 0 24 24">
      <path d="M18 6L6 18M6 6L18 18" fill="currentColor" stroke="currentColor" stroke-width="1.5" stroke-linecap="round" stroke-linejoin="round" />
    </symbol>

    <symbol id="lightning" width="100%" height="100%" viewBox="0 0 18 22">
      <path d="M0.57427 12.9345L4.30912 0H10.0489L8.89175 4.00981C8.8803 4.03272 8.86884 4.05563 8.85738 4.07855L5.80993 14.6644H8.65117C7.45968 17.6317 6.5317 19.9574 5.86721 21.6415C0.620097 21.5842 -0.846347 17.8265 0.436791 13.3813M5.89013 21.653L12.8099 11.6972H9.87702L12.4318 5.31586C16.8083 5.77412 18.8704 9.22255 17.656 13.3928C16.3614 17.8723 11.1143 21.653 6.00469 21.653C5.95887 21.653 5.9245 21.653 5.89013 21.653Z" fill="currentColor" />
    </symbol>

    <symbol id="vk" width="100%" height="100%" viewBox="0 0 22 13">
      <path d="M11.9044 12.75C4.98571 12.75 1.03943 8.10473 0.875 0.375H4.34065C4.45448 6.04842 7.00945 8.45158 9.03318 8.94707V0.375H12.2965V5.26802C14.2949 5.05743 16.3945 2.8277 17.1028 0.375H20.3661C20.0992 1.64704 19.5672 2.85146 18.8032 3.91293C18.0393 4.97439 17.06 5.87006 15.9265 6.54392C17.1918 7.15964 18.3093 8.03115 19.2054 9.10092C20.1015 10.1707 20.7557 11.4144 21.125 12.75H17.5329C17.2014 11.5899 16.5277 10.5515 15.5962 9.76482C14.6647 8.97814 13.5168 8.47822 12.2965 8.3277V12.75H11.9044Z" fill="currentColor" />
    </symbol>

    <symbol id="discord" width="100%" height="100%" viewBox="0 0 26 18">
      <path d="M21.5906 1.50748C19.9885 0.803241 18.2754 0.291408 16.4845 0C16.2645 0.373599 16.0075 0.876089 15.8304 1.27584C13.9266 1.00685 12.0402 1.00685 10.1714 1.27584C9.99431 0.876089 9.73146 0.373599 9.5096 0C7.7167 0.291408 6.00168 0.805109 4.39958 1.51121C1.1681 6.09901 0.292101 10.5729 0.730101 14.9832C2.87338 16.4869 4.95048 17.4004 6.99253 17.9981C7.49672 17.3462 7.9464 16.6532 8.33379 15.9228C7.59601 15.6594 6.88937 15.3344 6.22165 14.957C6.3988 14.8338 6.57205 14.7049 6.73947 14.5723C10.8119 16.3618 15.2367 16.3618 19.2605 14.5723C19.4298 14.7049 19.6031 14.8338 19.7783 14.957C19.1086 15.3362 18.4 15.6613 17.6622 15.9247C18.0496 16.6532 18.4973 17.3481 19.0035 18C21.0474 17.4023 23.1265 16.4888 25.2698 14.9832C25.7838 9.87052 24.3919 5.43774 21.5906 1.50748ZM8.88859 12.2709C7.66609 12.2709 6.66355 11.1986 6.66355 9.89294C6.66355 8.58719 7.64467 7.51311 8.88859 7.51311C10.1325 7.51311 11.135 8.58532 11.1136 9.89294C11.1156 11.1986 10.1325 12.2709 8.88859 12.2709ZM17.1114 12.2709C15.8888 12.2709 14.8862 11.1986 14.8862 9.89294C14.8862 8.58719 15.8674 7.51311 17.1114 7.51311C18.3552 7.51311 19.3578 8.58532 19.3364 9.89294C19.3364 11.1986 18.3552 12.2709 17.1114 12.2709Z" fill="currentColor" />
    </symbol>

    <symbol id="email" width="100%" height="100%" viewBox="0 0 20 16">
      <path fill-rule="evenodd" clip-rule="evenodd" d="M1.17157 1.17157C0 2.34315 0 4.22876 0 8C0 11.7712 0 13.6569 1.17157 14.8284C2.34315 16 4.22876 16 8 16H12C15.7712 16 17.6569 16 18.8284 14.8284C20 13.6569 20 11.7712 20 8C20 4.22876 20 2.34315 18.8284 1.17157C17.6569 0 15.7712 0 12 0H8C4.22876 0 2.34315 0 1.17157 1.17157ZM16.5762 3.51986C16.8413 3.83807 16.7983 4.31099 16.4801 4.57617L14.2837 6.40657C13.3973 7.14523 12.6789 7.74392 12.0448 8.15172C11.3843 8.57653 10.7411 8.84488 10 8.84488C9.25892 8.84488 8.61567 8.57653 7.95518 8.15172C7.32112 7.74392 6.60271 7.14523 5.71636 6.40658L3.51986 4.57617C3.20165 4.31099 3.15866 3.83807 3.42383 3.51986C3.68901 3.20165 4.16193 3.15866 4.48014 3.42383L6.63903 5.22291C7.57199 6.00038 8.21973 6.53841 8.76658 6.89013C9.29594 7.23059 9.65493 7.34487 10 7.34487C10.3451 7.34487 10.7041 7.23059 11.2334 6.89013C11.7803 6.53841 12.428 6.00038 13.361 5.22291L15.5199 3.42383C15.8381 3.15866 16.311 3.20165 16.5762 3.51986Z" fill="currentColor" />
    </symbol>

    <symbol id="points" width="100%" height="100%" viewBox="0 0 54 54">
      <path opacity="0.6" d="M27 15.1875C30.7233 15.1875 33.75 12.1595 33.75 8.4375C33.75 4.71555 30.7233 1.6875 27 1.6875C23.2767 1.6875 20.25 4.71555 20.25 8.4375C20.25 12.1595 23.2767 15.1875 27 15.1875Z" fill="currentColor" />
      <path opacity="0.2" d="M45.5625 15.1875C49.2858 15.1875 52.3125 12.1595 52.3125 8.4375C52.3125 4.71555 49.2858 1.6875 45.5625 1.6875C41.8392 1.6875 38.8125 4.71555 38.8125 8.4375C38.8125 12.1595 41.8392 15.1875 45.5625 15.1875Z" fill="currentColor" />
      <path opacity="0.6" d="M45.5625 20.25C41.8392 20.25 38.8125 23.2781 38.8125 27C38.8125 30.722 41.8392 33.75 45.5625 33.75C49.2858 33.75 52.3125 30.722 52.3125 27C52.3125 23.2781 49.2858 20.25 45.5625 20.25ZM8.4375 38.8125C4.7142 38.8125 1.6875 41.8405 1.6875 45.5625C1.6875 49.2845 4.7142 52.3125 8.4375 52.3125C12.1608 52.3125 15.1875 49.2845 15.1875 45.5625C15.1875 41.8405 12.1608 38.8125 8.4375 38.8125Z" fill="currentColor" />
      <path d="M45.5625 38.8125C42.4265 38.8125 39.8061 40.9725 39.0514 43.875H33.5111C33.2091 42.7144 32.6029 41.6555 31.755 40.8075C30.907 39.9596 29.8481 39.3534 28.6875 39.0514V33.5111C31.59 32.7551 33.75 30.1361 33.75 27C33.75 23.278 30.7233 20.25 27 20.25C23.864 20.25 21.2436 22.41 20.4903 25.3125H14.9472C14.6452 24.1523 14.0391 23.0938 13.1914 22.2461C12.3437 21.3984 11.2852 20.7923 10.125 20.4903V14.9472C13.0275 14.1939 15.1875 11.5722 15.1875 8.4375C15.1875 4.71555 12.1608 1.6875 8.4375 1.6875C4.7142 1.6875 1.6875 4.71555 1.6875 8.4375C1.6875 11.5736 3.8475 14.1939 6.75 14.9486V20.4903C3.8475 21.2436 1.6875 23.8653 1.6875 27C1.6875 30.722 4.7142 33.75 8.4375 33.75C11.5736 33.75 14.1939 31.59 14.9486 28.6875H20.4903C20.7921 29.8479 21.3981 30.9067 22.2458 31.7547C23.0935 32.6026 24.1522 33.2089 25.3125 33.5111V39.0514C22.41 39.8074 20.25 42.4265 20.25 45.5625C20.25 49.2845 23.2767 52.3125 27 52.3125C30.1361 52.3125 32.7564 50.1525 33.5111 47.25H39.0514C39.8074 50.1525 42.4265 52.3125 45.5625 52.3125C49.2858 52.3125 52.3125 49.2845 52.3125 45.5625C52.3125 41.8405 49.2858 38.8125 45.5625 38.8125Z" fill="currentColor" />
    </symbol>

    <symbol id="diamonds" width="100%" height="100%" viewBox="0 0 80 54">
      <path opacity="0.2" fill-rule="evenodd" clip-rule="evenodd" d="M51.1772 46.421L54.6252 49.9121C55.1253 50.4183 55.8035 50.7027 56.5106 50.7027C57.2177 50.7027 57.8958 50.4183 58.3959 49.9121L79.1372 28.9115C79.385 28.6608 79.5815 28.3631 79.7156 28.0355C79.8497 27.7078 79.9187 27.3566 79.9187 27.002C79.9187 26.6473 79.8497 26.2961 79.7156 25.9685C79.5815 25.6408 79.385 25.3431 79.1372 25.0924L58.3959 4.09179C57.8958 3.58562 57.2177 3.30127 56.5106 3.30127C55.8035 3.30127 55.1253 3.58562 54.6252 4.09179L51.1772 7.58289L68.4706 25.0924C68.7183 25.3431 68.9148 25.6408 69.0489 25.9685C69.183 26.2961 69.252 26.6473 69.252 27.002C69.252 27.3566 69.183 27.7078 69.0489 28.0355C68.9148 28.3631 68.7183 28.6608 68.4706 28.9115L51.1772 46.421Z" fill="currentColor" />
      <path opacity="0.4" fill-rule="evenodd" clip-rule="evenodd" d="M40.5103 46.421L43.9583 49.9121C44.4583 50.4183 45.1365 50.7027 45.8436 50.7027C46.5507 50.7027 47.2288 50.4183 47.7289 49.9121L68.4703 28.9115C68.718 28.6608 68.9145 28.3631 69.0486 28.0355C69.1827 27.7078 69.2517 27.3566 69.2517 27.002C69.2517 26.6473 69.1827 26.2961 69.0486 25.9685C68.9145 25.6408 68.718 25.3431 68.4703 25.0924L47.7289 4.09179C47.2288 3.58562 46.5507 3.30127 45.8436 3.30127C45.1365 3.30127 44.4583 3.58562 43.9583 4.09179L40.5103 7.58289L57.8036 25.0924C58.0513 25.3431 58.2478 25.6408 58.3819 25.9685C58.516 26.2961 58.585 26.6473 58.585 27.002C58.585 27.3566 58.516 27.7078 58.3819 28.0355C58.2478 28.3631 58.0513 28.6608 57.8036 28.9115L40.5103 46.421Z" fill="currentColor" />
      <path opacity="0.7" d="M57.8047 25.0934L37.0629 4.09229C36.0215 3.03788 34.333 3.03788 33.2916 4.09229L12.5498 25.0934C11.5084 26.1478 11.5084 27.8573 12.5498 28.9117L33.2916 49.9128C34.333 50.9672 36.0215 50.9672 37.0629 49.9128L57.8047 28.9117C58.8461 27.8573 58.8461 26.1478 57.8047 25.0934Z" fill="currentColor" />
      <path d="M47.1377 25.0934L26.3959 4.09229C25.3545 3.03788 23.666 3.03788 22.6246 4.09229L1.88284 25.0934C0.841441 26.1478 0.84144 27.8573 1.88284 28.9117L22.6246 49.9128C23.666 50.9672 25.3545 50.9672 26.3959 49.9128L47.1377 28.9117C48.1791 27.8573 48.1791 26.1478 47.1377 25.0934Z" fill="currentColor" />
    </symbol>

    <symbol id="squares" width="100%" height="100%" viewBox="0 0 54 54">
      <path d="M14.175 16.2H2.025C1.48794 16.2 0.97287 15.9867 0.593109 15.6069C0.213348 15.2271 0 14.7121 0 14.175L0 2.025C0 1.48794 0.213348 0.97287 0.593109 0.593109C0.97287 0.213348 1.48794 0 2.025 0L14.175 0C14.7121 0 15.2271 0.213348 15.6069 0.593109C15.9867 0.97287 16.2 1.48794 16.2 2.025V14.175C16.2 14.7121 15.9867 15.2271 15.6069 15.6069C15.2271 15.9867 14.7121 16.2 14.175 16.2Z" fill="currentColor" />
      <path opacity="0.8" d="M33.0749 16.2H20.9249C20.3878 16.2 19.8728 15.9867 19.493 15.6069C19.1132 15.2271 18.8999 14.7121 18.8999 14.175V2.025C18.8999 1.48794 19.1132 0.97287 19.493 0.593109C19.8728 0.213348 20.3878 0 20.9249 0L33.0749 0C33.612 0 34.127 0.213348 34.5068 0.593109C34.8866 0.97287 35.0999 1.48794 35.0999 2.025V14.175C35.0999 14.7121 34.8866 15.2271 34.5068 15.6069C34.127 15.9867 33.612 16.2 33.0749 16.2Z" fill="currentColor" />
      <path opacity="0.6" d="M33.0749 35.1H20.9249C20.3878 35.1 19.8728 34.8867 19.493 34.5069C19.1132 34.1271 18.8999 33.6121 18.8999 33.075V20.925C18.8999 20.3879 19.1132 19.8729 19.493 19.4931C19.8728 19.1133 20.3878 18.9 20.9249 18.9H33.0749C33.612 18.9 34.127 19.1133 34.5068 19.4931C34.8866 19.8729 35.0999 20.3879 35.0999 20.925V33.075C35.0999 33.6121 34.8866 34.1271 34.5068 34.5069C34.127 34.8867 33.612 35.1 33.0749 35.1ZM51.9749 16.2H39.8249C39.2878 16.2 38.7728 15.9867 38.393 15.6069C38.0133 15.2271 37.7999 14.7121 37.7999 14.175V2.025C37.7999 1.48794 38.0133 0.97287 38.393 0.593109C38.7728 0.213348 39.2878 0 39.8249 0L51.9749 0C52.512 0 53.027 0.213348 53.4068 0.593109C53.7866 0.97287 53.9999 1.48794 53.9999 2.025V14.175C53.9999 14.7121 53.7866 15.2271 53.4068 15.6069C53.027 15.9867 52.512 16.2 51.9749 16.2Z" fill="currentColor" />
      <path opacity="0.8" d="M14.175 35.0999H2.025C1.48794 35.0999 0.97287 34.8866 0.593109 34.5068C0.213348 34.127 0 33.612 0 33.0749L0 20.9249C0 20.3878 0.213348 19.8728 0.593109 19.493C0.97287 19.1132 1.48794 18.8999 2.025 18.8999H14.175C14.7121 18.8999 15.2271 19.1132 15.6069 19.493C15.9867 19.8728 16.2 20.3878 16.2 20.9249V33.0749C16.2 33.612 15.9867 34.127 15.6069 34.5068C15.2271 34.8866 14.7121 35.0999 14.175 35.0999Z" fill="currentColor" />
      <path opacity="0.6" d="M14.175 53.9998H2.025C1.48794 53.9998 0.97287 53.7865 0.593109 53.4067C0.213348 53.0269 0 52.5119 0 51.9748L0 39.8248C0 39.2877 0.213348 38.7727 0.593109 38.3929C0.97287 38.0132 1.48794 37.7998 2.025 37.7998H14.175C14.7121 37.7998 15.2271 38.0132 15.6069 38.3929C15.9867 38.7727 16.2 39.2877 16.2 39.8248V51.9748C16.2 52.5119 15.9867 53.0269 15.6069 53.4067C15.2271 53.7865 14.7121 53.9998 14.175 53.9998Z" fill="currentColor" />
      <path opacity="0.4" d="M49.9501 32.4001H41.8501C41.4921 32.4001 41.1487 32.2579 40.8955 32.0047C40.6423 31.7515 40.5001 31.4081 40.5001 31.0501V22.9501C40.5001 22.5921 40.6423 22.2487 40.8955 21.9955C41.1487 21.7423 41.4921 21.6001 41.8501 21.6001H49.9501C50.3081 21.6001 50.6515 21.7423 50.9047 21.9955C51.1579 22.2487 51.3001 22.5921 51.3001 22.9501V31.0501C51.3001 31.4081 51.1579 31.7515 50.9047 32.0047C50.6515 32.2579 50.3081 32.4001 49.9501 32.4001ZM31.0501 52.6501H22.9501C22.5921 52.6501 22.2487 52.5079 21.9955 52.2547C21.7423 52.0015 21.6001 51.6581 21.6001 51.3001V43.2001C21.6001 42.8421 21.7423 42.4987 21.9955 42.2455C22.2487 41.9923 22.5921 41.8501 22.9501 41.8501H31.0501C31.4081 41.8501 31.7515 41.9923 32.0047 42.2455C32.2579 42.4987 32.4001 42.8421 32.4001 43.2001V51.3001C32.4001 51.6581 32.2579 52.0015 32.0047 52.2547C31.7515 52.5079 31.4081 52.6501 31.0501 52.6501Z" fill="currentColor" />
      <path opacity="0.2" d="M49.95 52.6501H41.85C41.492 52.6501 41.1486 52.5079 40.8954 52.2547C40.6422 52.0015 40.5 51.6581 40.5 51.3001V43.2001C40.5 42.8421 40.6422 42.4987 40.8954 42.2455C41.1486 41.9923 41.492 41.8501 41.85 41.8501H49.95C50.308 41.8501 50.6514 41.9923 50.9046 42.2455C51.1578 42.4987 51.3 42.8421 51.3 43.2001V51.3001C51.3 51.6581 51.1578 52.0015 50.9046 52.2547C50.6514 52.5079 50.308 52.6501 49.95 52.6501Z" fill="currentColor" />
    </symbol>

    <symbol id="listing" width="100%" height="100%" viewBox="0 0 60 54">
      <path d="M0.990803 13.5002H50.4899C50.8463 13.5002 51.173 13.3382 51.3512 13.075L59.2703 1.26249C59.355 1.1382 59.4 0.991096 59.3993 0.840664C59.3986 0.690232 59.3522 0.543568 59.2663 0.420094C59.1673 0.286721 59.0378 0.179001 58.8887 0.105953C58.7395 0.0329059 58.575 -0.00334246 58.409 0.000243943H8.9099C8.74272 -0.00337834 8.57713 0.0333861 8.42719 0.107417C8.27725 0.181448 8.14738 0.290561 8.0486 0.425494L0.129503 12.238C0.0447614 12.3623 -0.000226364 12.5094 0.000496866 12.6598C0.0012201 12.8103 0.0476202 12.9569 0.133553 13.0804C0.232513 13.2138 0.361988 13.3215 0.511137 13.3945C0.660285 13.4676 0.824765 13.5038 0.990803 13.5002Z" fill="currentColor" />
      <path d="M58.409 13.5002H8.9099C8.74272 13.4966 8.57713 13.5334 8.42719 13.6074C8.27725 13.6814 8.14738 13.7906 8.0486 13.9255L0.129503 25.738C0.0447614 25.8623 -0.000226364 26.0094 0.000496866 26.1598C0.0012201 26.3103 0.0476202 26.4569 0.133553 26.5804C0.232513 26.7138 0.361988 26.8215 0.511137 26.8945C0.660285 26.9676 0.824765 27.0038 0.990803 27.0002H50.4899C50.8463 27.0002 51.173 26.8382 51.3512 26.575L59.2703 14.7625C59.355 14.6382 59.4 14.4911 59.3993 14.3407C59.3986 14.1902 59.3522 14.0436 59.2663 13.9201C59.1673 13.7867 59.0378 13.679 58.8887 13.606C58.7395 13.5329 58.575 13.4967 58.409 13.5002Z" fill="currentColor" fill-opacity="0.7" />
      <path d="M58.409 27.0002H8.9099C8.74272 26.9966 8.57713 27.0334 8.42719 27.1074C8.27725 27.1814 8.14738 27.2906 8.0486 27.4255L0.129503 39.238C0.0447614 39.3623 -0.000226364 39.5094 0.000496866 39.6598C0.0012201 39.8103 0.0476202 39.9569 0.133553 40.0804C0.232513 40.2138 0.361988 40.3215 0.511137 40.3945C0.660285 40.4676 0.824765 40.5038 0.990803 40.5002H50.4899C50.8463 40.5002 51.173 40.3382 51.3512 40.075L59.2703 28.2625C59.355 28.1382 59.4 27.9911 59.3993 27.8407C59.3986 27.6902 59.3522 27.5436 59.2663 27.4201C59.1673 27.2867 59.0378 27.179 58.8887 27.106C58.7395 27.0329 58.575 26.9967 58.409 27.0002Z" fill="currentColor" fill-opacity="0.4" />
      <path d="M58.409 40.5002H8.9099C8.74272 40.4966 8.57713 40.5334 8.42719 40.6074C8.27725 40.6814 8.14738 40.7906 8.0486 40.9255L0.129503 52.738C0.0447614 52.8623 -0.000226364 53.0094 0.000496866 53.1598C0.0012201 53.3103 0.0476202 53.4569 0.133553 53.5804C0.232513 53.7138 0.361988 53.8215 0.511137 53.8945C0.660285 53.9676 0.824765 54.0038 0.990803 54.0002H50.4899C50.8463 54.0002 51.173 53.8382 51.3512 53.575L59.2703 41.7625C59.355 41.6382 59.4 41.4911 59.3993 41.3407C59.3986 41.1902 59.3522 41.0436 59.2663 40.9201C59.1673 40.7867 59.0378 40.679 58.8887 40.606C58.7395 40.5329 58.575 40.4967 58.409 40.5002Z" fill="currentColor" fill-opacity="0.2" />
    </symbol>

    <symbol id="dots" width="100%" height="100%" viewBox="0 0 146 146">
      <g opacity="0.6">
        <g opacity="0.2">
          <circle cx="35.1357" cy="35.7956" r="0.800735" fill="currentColor" />
          <circle cx="41.396" cy="35.7956" r="0.800735" fill="currentColor" />
          <circle cx="47.6562" cy="35.7956" r="0.800735" fill="currentColor" />
          <circle cx="53.9165" cy="35.7956" r="0.800735" fill="currentColor" />
          <circle cx="60.1767" cy="35.7956" r="0.800735" fill="currentColor" />
          <circle cx="66.437" cy="35.7956" r="0.800735" fill="currentColor" />
          <circle cx="72.6972" cy="35.7956" r="0.800735" fill="currentColor" />
          <circle cx="78.9575" cy="35.7956" r="0.800735" fill="currentColor" />
          <circle cx="85.2177" cy="35.7956" r="0.800735" fill="currentColor" />
          <circle cx="91.478" cy="35.7956" r="0.800735" fill="currentColor" />
          <circle cx="97.7382" cy="35.7956" r="0.800735" fill="currentColor" />
          <circle cx="103.999" cy="35.7956" r="0.800735" fill="currentColor" />
          <circle cx="110.259" cy="35.7956" r="0.800735" fill="currentColor" />
        </g>
        <g opacity="0.3">
          <circle cx="35.1357" cy="42.0559" r="0.800735" fill="currentColor" />
          <circle cx="41.396" cy="42.0559" r="0.800735" fill="currentColor" />
          <circle cx="47.6562" cy="42.0559" r="0.800735" fill="currentColor" />
          <circle cx="53.9165" cy="42.0559" r="0.800735" fill="currentColor" />
          <circle cx="60.1767" cy="42.0559" r="0.800735" fill="currentColor" />
          <circle cx="66.437" cy="42.0559" r="0.800735" fill="currentColor" />
          <circle cx="72.6972" cy="42.0559" r="0.800735" fill="currentColor" />
          <circle cx="78.9575" cy="42.0559" r="0.800735" fill="currentColor" />
          <circle cx="85.2177" cy="42.0559" r="0.800735" fill="currentColor" />
          <circle cx="91.478" cy="42.0559" r="0.800735" fill="currentColor" />
          <circle cx="97.7382" cy="42.0559" r="0.800735" fill="currentColor" />
          <circle cx="103.999" cy="42.0559" r="0.800735" fill="currentColor" />
          <circle cx="110.259" cy="42.0559" r="0.800735" fill="currentColor" />
        </g>
        <g opacity="0.4">
          <circle cx="35.1357" cy="48.3162" r="0.800735" fill="currentColor" />
          <circle cx="41.396" cy="48.3162" r="0.800735" fill="currentColor" />
          <circle cx="47.6562" cy="48.3162" r="0.800735" fill="currentColor" />
          <circle cx="53.9165" cy="48.3162" r="0.800735" fill="currentColor" />
          <circle cx="60.1767" cy="48.3162" r="0.800735" fill="currentColor" />
          <circle cx="66.437" cy="48.3162" r="0.800735" fill="currentColor" />
          <circle cx="72.6972" cy="48.3162" r="0.800735" fill="currentColor" />
          <circle cx="78.9575" cy="48.3162" r="0.800735" fill="currentColor" />
          <circle cx="85.2177" cy="48.3162" r="0.800735" fill="currentColor" />
          <circle cx="91.478" cy="48.3162" r="0.800735" fill="currentColor" />
          <circle cx="97.7382" cy="48.3162" r="0.800735" fill="currentColor" />
          <circle cx="103.999" cy="48.3162" r="0.800735" fill="currentColor" />
          <circle cx="110.259" cy="48.3162" r="0.800735" fill="currentColor" />
        </g>
        <g opacity="0.5">
          <circle cx="35.1357" cy="54.5765" r="0.800735" fill="currentColor" />
          <circle cx="41.396" cy="54.5765" r="0.800735" fill="currentColor" />
          <circle cx="47.6562" cy="54.5765" r="0.800735" fill="currentColor" />
          <circle cx="53.9165" cy="54.5765" r="0.800735" fill="currentColor" />
          <circle cx="60.1767" cy="54.5765" r="0.800735" fill="currentColor" />
          <circle cx="66.437" cy="54.5765" r="0.800735" fill="currentColor" />
          <circle cx="72.6972" cy="54.5765" r="0.800735" fill="currentColor" />
          <circle cx="78.9575" cy="54.5765" r="0.800735" fill="currentColor" />
          <circle cx="85.2177" cy="54.5765" r="0.800735" fill="currentColor" />
          <circle cx="91.478" cy="54.5765" r="0.800735" fill="currentColor" />
          <circle cx="97.7382" cy="54.5765" r="0.800735" fill="currentColor" />
          <circle cx="103.999" cy="54.5765" r="0.800735" fill="currentColor" />
          <circle cx="110.259" cy="54.5765" r="0.800735" fill="currentColor" />
        </g>
        <g opacity="0.6">
          <circle cx="35.1357" cy="60.8368" r="0.800735" fill="currentColor" />
          <circle cx="41.396" cy="60.8368" r="0.800735" fill="currentColor" />
          <circle cx="47.6562" cy="60.8368" r="0.800735" fill="currentColor" />
          <circle cx="53.9165" cy="60.8368" r="0.800735" fill="currentColor" />
          <circle cx="60.1767" cy="60.8368" r="0.800735" fill="currentColor" />
          <circle cx="66.437" cy="60.8368" r="0.800735" fill="currentColor" />
          <circle cx="72.6972" cy="60.8368" r="0.800735" fill="currentColor" />
          <circle cx="78.9575" cy="60.8368" r="0.800735" fill="currentColor" />
          <circle cx="85.2177" cy="60.8368" r="0.800735" fill="currentColor" />
          <circle cx="91.478" cy="60.8368" r="0.800735" fill="currentColor" />
          <circle cx="97.7382" cy="60.8368" r="0.800735" fill="currentColor" />
          <circle cx="103.999" cy="60.8368" r="0.800735" fill="currentColor" />
          <circle cx="110.259" cy="60.8368" r="0.800735" fill="currentColor" />
        </g>
        <g opacity="0.7">
          <circle cx="35.1357" cy="67.0971" r="0.800735" fill="currentColor" />
          <circle cx="41.396" cy="67.0971" r="0.800735" fill="currentColor" />
          <circle cx="47.6562" cy="67.0971" r="0.800735" fill="currentColor" />
          <circle cx="53.9165" cy="67.0971" r="0.800735" fill="currentColor" />
          <circle cx="60.1767" cy="67.0971" r="0.800735" fill="currentColor" />
          <circle cx="66.437" cy="67.0971" r="0.800735" fill="currentColor" />
          <circle cx="72.6972" cy="67.0971" r="0.800735" fill="currentColor" />
          <circle cx="78.9575" cy="67.0971" r="0.800735" fill="currentColor" />
          <circle cx="85.2177" cy="67.0971" r="0.800735" fill="currentColor" />
          <circle cx="91.478" cy="67.0971" r="0.800735" fill="currentColor" />
          <circle cx="97.7382" cy="67.0971" r="0.800735" fill="currentColor" />
          <circle cx="103.999" cy="67.0971" r="0.800735" fill="currentColor" />
          <circle cx="110.259" cy="67.0971" r="0.800735" fill="currentColor" />
        </g>
        <circle cx="35.1357" cy="73.3574" r="0.800735" fill="currentColor" />
        <circle cx="41.396" cy="73.3574" r="0.800735" fill="currentColor" />
        <circle cx="47.6562" cy="73.3574" r="0.800735" fill="currentColor" />
        <circle cx="53.9165" cy="73.3574" r="0.800735" fill="currentColor" />
        <circle cx="60.1767" cy="73.3574" r="0.800735" fill="currentColor" />
        <circle cx="66.437" cy="73.3574" r="0.800735" fill="currentColor" />
        <circle cx="72.6972" cy="73.3574" r="0.800735" fill="currentColor" />
        <circle cx="78.9575" cy="73.3574" r="0.800735" fill="currentColor" />
        <circle cx="85.2177" cy="73.3574" r="0.800735" fill="currentColor" />
        <circle cx="91.478" cy="73.3574" r="0.800735" fill="currentColor" />
        <circle cx="97.7382" cy="73.3574" r="0.800735" fill="currentColor" />
        <circle cx="103.999" cy="73.3574" r="0.800735" fill="currentColor" />
        <circle cx="110.259" cy="73.3574" r="0.800735" fill="currentColor" />
        <g opacity="0.7">
          <circle cx="35.1357" cy="79.6177" r="0.800735" fill="currentColor" />
          <circle cx="41.396" cy="79.6177" r="0.800735" fill="currentColor" />
          <circle cx="47.6562" cy="79.6177" r="0.800735" fill="currentColor" />
          <circle cx="53.9165" cy="79.6177" r="0.800735" fill="currentColor" />
          <circle cx="60.1767" cy="79.6177" r="0.800735" fill="currentColor" />
          <circle cx="66.437" cy="79.6177" r="0.800735" fill="currentColor" />
          <circle cx="72.6972" cy="79.6177" r="0.800735" fill="currentColor" />
          <circle cx="78.9575" cy="79.6177" r="0.800735" fill="currentColor" />
          <circle cx="85.2177" cy="79.6177" r="0.800735" fill="currentColor" />
          <circle cx="91.478" cy="79.6177" r="0.800735" fill="currentColor" />
          <circle cx="97.7382" cy="79.6177" r="0.800735" fill="currentColor" />
          <circle cx="103.999" cy="79.6177" r="0.800735" fill="currentColor" />
          <circle cx="110.259" cy="79.6177" r="0.800735" fill="currentColor" />
        </g>
        <g opacity="0.6">
          <circle cx="35.1357" cy="85.8779" r="0.800735" fill="currentColor" />
          <circle cx="41.396" cy="85.8779" r="0.800735" fill="currentColor" />
          <circle cx="47.6562" cy="85.8779" r="0.800735" fill="currentColor" />
          <circle cx="53.9165" cy="85.8779" r="0.800735" fill="currentColor" />
          <circle cx="60.1767" cy="85.8779" r="0.800735" fill="currentColor" />
          <circle cx="66.437" cy="85.8779" r="0.800735" fill="currentColor" />
          <circle cx="72.6972" cy="85.8779" r="0.800735" fill="currentColor" />
          <circle cx="78.9575" cy="85.8779" r="0.800735" fill="currentColor" />
          <circle cx="85.2177" cy="85.8779" r="0.800735" fill="currentColor" />
          <circle cx="91.478" cy="85.8779" r="0.800735" fill="currentColor" />
          <circle cx="97.7382" cy="85.8779" r="0.800735" fill="currentColor" />
          <circle cx="103.999" cy="85.8779" r="0.800735" fill="currentColor" />
          <circle cx="110.259" cy="85.8779" r="0.800735" fill="currentColor" />
        </g>
        <g opacity="0.5">
          <circle cx="35.1357" cy="92.1383" r="0.800735" fill="currentColor" />
          <circle cx="41.396" cy="92.1383" r="0.800735" fill="currentColor" />
          <circle cx="47.6562" cy="92.1383" r="0.800735" fill="currentColor" />
          <circle cx="53.9165" cy="92.1383" r="0.800735" fill="currentColor" />
          <circle cx="60.1767" cy="92.1383" r="0.800735" fill="currentColor" />
          <circle cx="66.437" cy="92.1383" r="0.800735" fill="currentColor" />
          <circle cx="72.6972" cy="92.1383" r="0.800735" fill="currentColor" />
          <circle cx="78.9575" cy="92.1383" r="0.800735" fill="currentColor" />
          <circle cx="85.2177" cy="92.1383" r="0.800735" fill="currentColor" />
          <circle cx="91.478" cy="92.1383" r="0.800735" fill="currentColor" />
          <circle cx="97.7382" cy="92.1383" r="0.800735" fill="currentColor" />
          <circle cx="103.999" cy="92.1383" r="0.800735" fill="currentColor" />
          <circle cx="110.259" cy="92.1383" r="0.800735" fill="currentColor" />
        </g>
        <g opacity="0.4">
          <circle cx="35.1357" cy="98.3985" r="0.800735" fill="currentColor" />
          <circle cx="41.396" cy="98.3985" r="0.800735" fill="currentColor" />
          <circle cx="47.6562" cy="98.3985" r="0.800735" fill="currentColor" />
          <circle cx="53.9165" cy="98.3985" r="0.800735" fill="currentColor" />
          <circle cx="60.1767" cy="98.3985" r="0.800735" fill="currentColor" />
          <circle cx="66.437" cy="98.3985" r="0.800735" fill="currentColor" />
          <circle cx="72.6972" cy="98.3985" r="0.800735" fill="currentColor" />
          <circle cx="78.9575" cy="98.3985" r="0.800735" fill="currentColor" />
          <circle cx="85.2177" cy="98.3985" r="0.800735" fill="currentColor" />
          <circle cx="91.478" cy="98.3985" r="0.800735" fill="currentColor" />
          <circle cx="97.7382" cy="98.3985" r="0.800735" fill="currentColor" />
          <circle cx="103.999" cy="98.3985" r="0.800735" fill="currentColor" />
          <circle cx="110.259" cy="98.3985" r="0.800735" fill="currentColor" />
        </g>
        <g opacity="0.3">
          <circle cx="35.1357" cy="104.659" r="0.800735" fill="currentColor" />
          <circle cx="41.396" cy="104.659" r="0.800735" fill="currentColor" />
          <circle cx="47.6562" cy="104.659" r="0.800735" fill="currentColor" />
          <circle cx="53.9165" cy="104.659" r="0.800735" fill="currentColor" />
          <circle cx="60.1767" cy="104.659" r="0.800735" fill="currentColor" />
          <circle cx="66.437" cy="104.659" r="0.800735" fill="currentColor" />
          <circle cx="72.6972" cy="104.659" r="0.800735" fill="currentColor" />
          <circle cx="78.9575" cy="104.659" r="0.800735" fill="currentColor" />
          <circle cx="85.2177" cy="104.659" r="0.800735" fill="currentColor" />
          <circle cx="91.478" cy="104.659" r="0.800735" fill="currentColor" />
          <circle cx="97.7382" cy="104.659" r="0.800735" fill="currentColor" />
          <circle cx="103.999" cy="104.659" r="0.800735" fill="currentColor" />
          <circle cx="110.259" cy="104.659" r="0.800735" fill="currentColor" />
        </g>
        <g opacity="0.2">
          <circle cx="34.2617" cy="110.919" r="0.800735" fill="currentColor" />
          <circle cx="40.6679" cy="110.919" r="0.800735" fill="currentColor" />
          <circle cx="47.0737" cy="110.919" r="0.800735" fill="currentColor" />
          <circle cx="53.4794" cy="110.919" r="0.800735" fill="currentColor" />
          <circle cx="59.8857" cy="110.919" r="0.800735" fill="currentColor" />
          <circle cx="66.2915" cy="110.919" r="0.800735" fill="currentColor" />
          <circle cx="72.6972" cy="110.919" r="0.800735" fill="currentColor" />
          <circle cx="79.103" cy="110.919" r="0.800735" fill="currentColor" />
          <circle cx="85.5092" cy="110.919" r="0.800735" fill="currentColor" />
          <circle cx="91.915" cy="110.919" r="0.800735" fill="currentColor" />
          <circle cx="98.3208" cy="110.919" r="0.800735" fill="currentColor" />
          <circle cx="104.727" cy="110.919" r="0.800735" fill="currentColor" />
          <circle cx="111.133" cy="110.919" r="0.800735" fill="currentColor" />
        </g>
      </g>
    </symbol>

  </defs>
</svg>