<?xml version="1.0"?>
<svg xmlns="http://www.w3.org/2000/svg" xmlns:xlink="http://www.w3.org/1999/xlink" version="1.1" xml:space="preserve">
  <defs>

    <symbol id="loader" width="100%" height="100%" viewBox="22 22 44 44">
      <circle cx="44" cy="44" r="20.2" fill="transparent" stroke="currentColor" stroke-width="4"></circle>
    </symbol>

    <symbol id="sun" width="100%" height="100%" viewBox="0 0 16 16">
      <path d="M8 11.75C10.0711 11.75 11.75 10.0711 11.75 8C11.75 5.92893 10.0711 4.25 8 4.25C5.92893 4.25 4.25 5.92893 4.25 8C4.25 10.0711 5.92893 11.75 8 11.75Z" fill="transparent" stroke="currentColor" stroke-linecap="round" stroke-linejoin="round" />
      <path d="M8 2.25V1" fill="transparent" stroke="currentColor" stroke-linecap="round" stroke-linejoin="round" />
      <path d="M3.93124 3.93105L3.04999 3.0498" fill="transparent" stroke="currentColor" stroke-linecap="round" stroke-linejoin="round" />
      <path d="M2.25 8H1" fill="transparent" stroke="currentColor" stroke-linecap="round" stroke-linejoin="round" />
      <path d="M3.93124 12.0688L3.04999 12.9501" fill="transparent" stroke="currentColor" stroke-linecap="round" stroke-linejoin="round" />
      <path d="M8 13.75V15" fill="transparent" stroke="currentColor" stroke-linecap="round" stroke-linejoin="round" />
      <path d="M12.0688 12.0688L12.95 12.9501" fill="transparent" stroke="currentColor" stroke-linecap="round" stroke-linejoin="round" />
      <path d="M13.75 8H15" fill="transparent" stroke="currentColor" stroke-linecap="round" stroke-linejoin="round" />
      <path d="M12.0688 3.93105L12.95 3.0498" fill="transparent" stroke="currentColor" stroke-linecap="round" stroke-linejoin="round" />
    </symbol>

    <symbol id="moon" width="100%" height="100%" viewBox="0 0 16 16">
      <path d="M13.5438 9.5373C12.5621 9.81258 11.5248 9.8216 10.5385 9.56344C9.55223 9.30528 8.65241 8.78924 7.9315 8.06832C7.21058 7.3474 6.69454 6.44759 6.43638 5.46128C6.17822 4.47497 6.18724 3.43772 6.46251 2.45605C5.49468 2.72544 4.61431 3.24369 3.9091 3.9592C3.2039 4.67471 2.69846 5.56249 2.44313 6.53413C2.18781 7.50577 2.19151 8.52735 2.45387 9.49711C2.71623 10.4669 3.22809 11.351 3.93847 12.0613C4.64885 12.7717 5.53295 13.2836 6.50271 13.5459C7.47247 13.8083 8.49405 13.812 9.46569 13.5567C10.4373 13.3014 11.3251 12.7959 12.0406 12.0907C12.7561 11.3855 13.2744 10.5051 13.5438 9.5373Z" fill="transparent" stroke="currentColor" stroke-linecap="round" stroke-linejoin="round" />
    </symbol>

    <symbol id="wheel" width="100%" height="100%" viewBox="0 0 24 24">
      <path fill-rule="evenodd" clip-rule="evenodd" d="M11.9985 24C5.38213 24 0 18.6162 0 12C0 5.38376 5.38213 0 11.9985 0C18.6164 0 24 5.38376 24 12C24 18.6162 18.6164 24 11.9985 24ZM12 3C7.03625 3 3 7.03727 3 12C3 16.9627 7.03771 21 12 21C16.9623 21 21 16.9627 21 12C21 7.03727 16.9638 3 12 3Z" fill="currentColor" />
      <path fill-rule="evenodd" clip-rule="evenodd" d="M11.9879 9C8.51389 9 5.84089 10.1955 4.54639 12.519C4.60189 13.2285 4.77739 13.911 5.05039 14.547C6.88189 13.569 10.3769 17.292 9.27739 18.9495C10.1474 19.2555 10.9889 19.482 11.9729 19.482C12.9404 19.482 13.9484 19.305 14.8034 19.0095C13.7024 17.352 17.0909 13.707 18.9344 14.706C19.2164 14.049 19.3979 13.347 19.4504 12.612C18.1424 10.3125 15.4394 9 11.9879 9ZM12.0029 13.734C11.0654 13.734 10.3124 12.969 10.3124 12.0225C10.3124 11.076 11.0654 10.311 12.0029 10.311C12.9314 10.311 13.6874 11.076 13.6874 12.0225C13.6874 12.969 12.9314 13.734 12.0029 13.734Z" fill="currentColor" />
    </symbol>

    <symbol id="basket" width="100%" height="100%" viewBox="0 0 25 24">
      <path d="M3.05657 2.07026C2.5589 2.24468 2.34063 2.88169 2.62875 3.35186C2.80337 3.64762 2.93434 3.68554 3.89475 3.73862L4.71547 3.77654L6.64503 9.88123C7.70148 13.2407 8.61824 16.0618 8.67936 16.1528C8.88017 16.4713 9.49135 16.8504 9.95409 16.9339C10.2597 16.9945 11.9797 17.0097 15.4634 16.9945C20.2043 16.9718 20.5448 16.9642 20.833 16.8277C21.2171 16.6533 21.6799 16.2741 21.837 16.0163C21.9069 15.9101 22.5268 14.1659 23.234 12.1411C24.1071 9.59306 24.5 8.35696 24.5 8.09912C24.5 7.62894 24.2381 7.1436 23.819 6.84784C23.1729 6.38525 23.365 6.39284 15.1491 6.39284H7.65783L7.48321 5.87716C7.38717 5.59657 7.15143 4.87614 6.95061 4.26946C6.75853 3.66279 6.54899 3.07886 6.4966 2.96511C6.36564 2.66177 5.71081 2.16884 5.32664 2.07784C4.92501 1.97926 3.3185 1.97167 3.05657 2.07026Z" fill="currentColor" />
      <path d="M10.3829 18.4131C9.58577 18.5615 9.03092 19.1945 8.98403 20.0229C8.93714 20.6793 9.10907 21.1248 9.55451 21.5155C10.1406 22.0313 10.8283 22.1329 11.5082 21.8125C11.9771 21.5937 12.1881 21.3749 12.3991 20.906C12.6882 20.2652 12.5788 19.5384 12.1177 19.0226C11.6332 18.4912 11.0628 18.288 10.3829 18.4131Z" fill="currentColor" />
      <path d="M18.6426 18.413C17.6267 18.6084 16.939 19.8822 17.3375 20.8512C17.611 21.4999 18.3534 22 19.0333 22C19.7601 22 20.5416 21.4295 20.7448 20.7575C21.1511 19.3899 20.0492 18.1551 18.6426 18.413Z" fill="currentColor" />
    </symbol>

    <symbol id="burger" width="100%" height="100%" viewBox="0 0 32 32">
      <path fill-rule="evenodd" clip-rule="evenodd" d="M27.6665 9.33337C27.6665 9.88566 27.2188 10.3334 26.6665 10.3334L5.33317 10.3334C4.78089 10.3334 4.33317 9.88566 4.33317 9.33337C4.33317 8.78109 4.78089 8.33337 5.33317 8.33337L26.6665 8.33337C27.2188 8.33337 27.6665 8.78109 27.6665 9.33337Z" fill="currentColor" />
      <path fill-rule="evenodd" clip-rule="evenodd" d="M27.6665 16C27.6665 16.5523 27.2188 17 26.6665 17L5.33317 17C4.78089 17 4.33317 16.5523 4.33317 16C4.33317 15.4477 4.78089 15 5.33317 15L26.6665 15C27.2188 15 27.6665 15.4477 27.6665 16Z" fill="currentColor" />
      <path fill-rule="evenodd" clip-rule="evenodd" d="M27.6665 22.6666C27.6665 23.2189 27.2188 23.6666 26.6665 23.6666L5.33317 23.6666C4.78089 23.6666 4.33317 23.2189 4.33317 22.6666C4.33317 22.1143 4.78089 21.6666 5.33317 21.6666L26.6665 21.6666C27.2188 21.6666 27.6665 22.1143 27.6665 22.6666Z" fill="currentColor" />
    </symbol>

    <symbol id="close" width="100%" height="100%" viewBox="0 0 24 24">
      <path d="M18 6L6 18M6 6L18 18" fill="currentColor" stroke="currentColor" stroke-width="1.5" stroke-linecap="round" stroke-linejoin="round" />
    </symbol>

    <symbol id="lightning" width="100%" height="100%" viewBox="0 0 18 22">
      <path d="M0.57427 12.9345L4.30912 0H10.0489L8.89175 4.00981C8.8803 4.03272 8.86884 4.05563 8.85738 4.07855L5.80993 14.6644H8.65117C7.45968 17.6317 6.5317 19.9574 5.86721 21.6415C0.620097 21.5842 -0.846347 17.8265 0.436791 13.3813M5.89013 21.653L12.8099 11.6972H9.87702L12.4318 5.31586C16.8083 5.77412 18.8704 9.22255 17.656 13.3928C16.3614 17.8723 11.1143 21.653 6.00469 21.653C5.95887 21.653 5.9245 21.653 5.89013 21.653Z" fill="currentColor" />
    </symbol>

    <symbol id="vk" width="100%" height="100%" viewBox="0 0 22 13">
      <path d="M11.9044 12.75C4.98571 12.75 1.03943 8.10473 0.875 0.375H4.34065C4.45448 6.04842 7.00945 8.45158 9.03318 8.94707V0.375H12.2965V5.26802C14.2949 5.05743 16.3945 2.8277 17.1028 0.375H20.3661C20.0992 1.64704 19.5672 2.85146 18.8032 3.91293C18.0393 4.97439 17.06 5.87006 15.9265 6.54392C17.1918 7.15964 18.3093 8.03115 19.2054 9.10092C20.1015 10.1707 20.7557 11.4144 21.125 12.75H17.5329C17.2014 11.5899 16.5277 10.5515 15.5962 9.76482C14.6647 8.97814 13.5168 8.47822 12.2965 8.3277V12.75H11.9044Z" fill="currentColor" />
    </symbol>

    <symbol id="discord" width="100%" height="100%" viewBox="0 0 26 18">
      <path d="M21.5906 1.50748C19.9885 0.803241 18.2754 0.291408 16.4845 0C16.2645 0.373599 16.0075 0.876089 15.8304 1.27584C13.9266 1.00685 12.0402 1.00685 10.1714 1.27584C9.99431 0.876089 9.73146 0.373599 9.5096 0C7.7167 0.291408 6.00168 0.805109 4.39958 1.51121C1.1681 6.09901 0.292101 10.5729 0.730101 14.9832C2.87338 16.4869 4.95048 17.4004 6.99253 17.9981C7.49672 17.3462 7.9464 16.6532 8.33379 15.9228C7.59601 15.6594 6.88937 15.3344 6.22165 14.957C6.3988 14.8338 6.57205 14.7049 6.73947 14.5723C10.8119 16.3618 15.2367 16.3618 19.2605 14.5723C19.4298 14.7049 19.6031 14.8338 19.7783 14.957C19.1086 15.3362 18.4 15.6613 17.6622 15.9247C18.0496 16.6532 18.4973 17.3481 19.0035 18C21.0474 17.4023 23.1265 16.4888 25.2698 14.9832C25.7838 9.87052 24.3919 5.43774 21.5906 1.50748ZM8.88859 12.2709C7.66609 12.2709 6.66355 11.1986 6.66355 9.89294C6.66355 8.58719 7.64467 7.51311 8.88859 7.51311C10.1325 7.51311 11.135 8.58532 11.1136 9.89294C11.1156 11.1986 10.1325 12.2709 8.88859 12.2709ZM17.1114 12.2709C15.8888 12.2709 14.8862 11.1986 14.8862 9.89294C14.8862 8.58719 15.8674 7.51311 17.1114 7.51311C18.3552 7.51311 19.3578 8.58532 19.3364 9.89294C19.3364 11.1986 18.3552 12.2709 17.1114 12.2709Z" fill="currentColor" />
    </symbol>

    <symbol id="email" width="100%" height="100%" viewBox="0 0 20 16">
      <path fill-rule="evenodd" clip-rule="evenodd" d="M1.17157 1.17157C0 2.34315 0 4.22876 0 8C0 11.7712 0 13.6569 1.17157 14.8284C2.34315 16 4.22876 16 8 16H12C15.7712 16 17.6569 16 18.8284 14.8284C20 13.6569 20 11.7712 20 8C20 4.22876 20 2.34315 18.8284 1.17157C17.6569 0 15.7712 0 12 0H8C4.22876 0 2.34315 0 1.17157 1.17157ZM16.5762 3.51986C16.8413 3.83807 16.7983 4.31099 16.4801 4.57617L14.2837 6.40657C13.3973 7.14523 12.6789 7.74392 12.0448 8.15172C11.3843 8.57653 10.7411 8.84488 10 8.84488C9.25892 8.84488 8.61567 8.57653 7.95518 8.15172C7.32112 7.74392 6.60271 7.14523 5.71636 6.40658L3.51986 4.57617C3.20165 4.31099 3.15866 3.83807 3.42383 3.51986C3.68901 3.20165 4.16193 3.15866 4.48014 3.42383L6.63903 5.22291C7.57199 6.00038 8.21973 6.53841 8.76658 6.89013C9.29594 7.23059 9.65493 7.34487 10 7.34487C10.3451 7.34487 10.7041 7.23059 11.2334 6.89013C11.7803 6.53841 12.428 6.00038 13.361 5.22291L15.5199 3.42383C15.8381 3.15866 16.311 3.20165 16.5762 3.51986Z" fill="currentColor" />
    </symbol>

    <symbol id="points" width="100%" height="100%" viewBox="0 0 54 54">
      <path opacity="0.6" d="M27 15.1875C30.7233 15.1875 33.75 12.1595 33.75 8.4375C33.75 4.71555 30.7233 1.6875 27 1.6875C23.2767 1.6875 20.25 4.71555 20.25 8.4375C20.25 12.1595 23.2767 15.1875 27 15.1875Z" fill="currentColor" />
      <path opacity="0.2" d="M45.5625 15.1875C49.2858 15.1875 52.3125 12.1595 52.3125 8.4375C52.3125 4.71555 49.2858 1.6875 45.5625 1.6875C41.8392 1.6875 38.8125 4.71555 38.8125 8.4375C38.8125 12.1595 41.8392 15.1875 45.5625 15.1875Z" fill="currentColor" />
      <path opacity="0.6" d="M45.5625 20.25C41.8392 20.25 38.8125 23.2781 38.8125 27C38.8125 30.722 41.8392 33.75 45.5625 33.75C49.2858 33.75 52.3125 30.722 52.3125 27C52.3125 23.2781 49.2858 20.25 45.5625 20.25ZM8.4375 38.8125C4.7142 38.8125 1.6875 41.8405 1.6875 45.5625C1.6875 49.2845 4.7142 52.3125 8.4375 52.3125C12.1608 52.3125 15.1875 49.2845 15.1875 45.5625C15.1875 41.8405 12.1608 38.8125 8.4375 38.8125Z" fill="currentColor" />
      <path d="M45.5625 38.8125C42.4265 38.8125 39.8061 40.9725 39.0514 43.875H33.5111C33.2091 42.7144 32.6029 41.6555 31.755 40.8075C30.907 39.9596 29.8481 39.3534 28.6875 39.0514V33.5111C31.59 32.7551 33.75 30.1361 33.75 27C33.75 23.278 30.7233 20.25 27 20.25C23.864 20.25 21.2436 22.41 20.4903 25.3125H14.9472C14.6452 24.1523 14.0391 23.0938 13.1914 22.2461C12.3437 21.3984 11.2852 20.7923 10.125 20.4903V14.9472C13.0275 14.1939 15.1875 11.5722 15.1875 8.4375C15.1875 4.71555 12.1608 1.6875 8.4375 1.6875C4.7142 1.6875 1.6875 4.71555 1.6875 8.4375C1.6875 11.5736 3.8475 14.1939 6.75 14.9486V20.4903C3.8475 21.2436 1.6875 23.8653 1.6875 27C1.6875 30.722 4.7142 33.75 8.4375 33.75C11.5736 33.75 14.1939 31.59 14.9486 28.6875H20.4903C20.7921 29.8479 21.3981 30.9067 22.2458 31.7547C23.0935 32.6026 24.1522 33.2089 25.3125 33.5111V39.0514C22.41 39.8074 20.25 42.4265 20.25 45.5625C20.25 49.2845 23.2767 52.3125 27 52.3125C30.1361 52.3125 32.7564 50.1525 33.5111 47.25H39.0514C39.8074 50.1525 42.4265 52.3125 45.5625 52.3125C49.2858 52.3125 52.3125 49.2845 52.3125 45.5625C52.3125 41.8405 49.2858 38.8125 45.5625 38.8125Z" fill="currentColor" />
    </symbol>

    <symbol id="diamonds" width="100%" height="100%" viewBox="0 0 80 54">
      <path opacity="0.2" fill-rule="evenodd" clip-rule="evenodd" d="M51.1772 46.421L54.6252 49.9121C55.1253 50.4183 55.8035 50.7027 56.5106 50.7027C57.2177 50.7027 57.8958 50.4183 58.3959 49.9121L79.1372 28.9115C79.385 28.6608 79.5815 28.3631 79.7156 28.0355C79.8497 27.7078 79.9187 27.3566 79.9187 27.002C79.9187 26.6473 79.8497 26.2961 79.7156 25.9685C79.5815 25.6408 79.385 25.3431 79.1372 25.0924L58.3959 4.09179C57.8958 3.58562 57.2177 3.30127 56.5106 3.30127C55.8035 3.30127 55.1253 3.58562 54.6252 4.09179L51.1772 7.58289L68.4706 25.0924C68.7183 25.3431 68.9148 25.6408 69.0489 25.9685C69.183 26.2961 69.252 26.6473 69.252 27.002C69.252 27.3566 69.183 27.7078 69.0489 28.0355C68.9148 28.3631 68.7183 28.6608 68.4706 28.9115L51.1772 46.421Z" fill="currentColor" />
      <path opacity="0.4" fill-rule="evenodd" clip-rule="evenodd" d="M40.5103 46.421L43.9583 49.9121C44.4583 50.4183 45.1365 50.7027 45.8436 50.7027C46.5507 50.7027 47.2288 50.4183 47.7289 49.9121L68.4703 28.9115C68.718 28.6608 68.9145 28.3631 69.0486 28.0355C69.1827 27.7078 69.2517 27.3566 69.2517 27.002C69.2517 26.6473 69.1827 26.2961 69.0486 25.9685C68.9145 25.6408 68.718 25.3431 68.4703 25.0924L47.7289 4.09179C47.2288 3.58562 46.5507 3.30127 45.8436 3.30127C45.1365 3.30127 44.4583 3.58562 43.9583 4.09179L40.5103 7.58289L57.8036 25.0924C58.0513 25.3431 58.2478 25.6408 58.3819 25.9685C58.516 26.2961 58.585 26.6473 58.585 27.002C58.585 27.3566 58.516 27.7078 58.3819 28.0355C58.2478 28.3631 58.0513 28.6608 57.8036 28.9115L40.5103 46.421Z" fill="currentColor" />
      <path opacity="0.7" d="M57.8047 25.0934L37.0629 4.09229C36.0215 3.03788 34.333 3.03788 33.2916 4.09229L12.5498 25.0934C11.5084 26.1478 11.5084 27.8573 12.5498 28.9117L33.2916 49.9128C34.333 50.9672 36.0215 50.9672 37.0629 49.9128L57.8047 28.9117C58.8461 27.8573 58.8461 26.1478 57.8047 25.0934Z" fill="currentColor" />
      <path d="M47.1377 25.0934L26.3959 4.09229C25.3545 3.03788 23.666 3.03788 22.6246 4.09229L1.88284 25.0934C0.841441 26.1478 0.84144 27.8573 1.88284 28.9117L22.6246 49.9128C23.666 50.9672 25.3545 50.9672 26.3959 49.9128L47.1377 28.9117C48.1791 27.8573 48.1791 26.1478 47.1377 25.0934Z" fill="currentColor" />
    </symbol>

    <symbol id="squares" width="100%" height="100%" viewBox="0 0 54 54">
      <path d="M14.175 16.2H2.025C1.48794 16.2 0.97287 15.9867 0.593109 15.6069C0.213348 15.2271 0 14.7121 0 14.175L0 2.025C0 1.48794 0.213348 0.97287 0.593109 0.593109C0.97287 0.213348 1.48794 0 2.025 0L14.175 0C14.7121 0 15.2271 0.213348 15.6069 0.593109C15.9867 0.97287 16.2 1.48794 16.2 2.025V14.175C16.2 14.7121 15.9867 15.2271 15.6069 15.6069C15.2271 15.9867 14.7121 16.2 14.175 16.2Z" fill="currentColor" />
      <path opacity="0.8" d="M33.0749 16.2H20.9249C20.3878 16.2 19.8728 15.9867 19.493 15.6069C19.1132 15.2271 18.8999 14.7121 18.8999 14.175V2.025C18.8999 1.48794 19.1132 0.97287 19.493 0.593109C19.8728 0.213348 20.3878 0 20.9249 0L33.0749 0C33.612 0 34.127 0.213348 34.5068 0.593109C34.8866 0.97287 35.0999 1.48794 35.0999 2.025V14.175C35.0999 14.7121 34.8866 15.2271 34.5068 15.6069C34.127 15.9867 33.612 16.2 33.0749 16.2Z" fill="currentColor" />
      <path opacity="0.6" d="M33.0749 35.1H20.9249C20.3878 35.1 19.8728 34.8867 19.493 34.5069C19.1132 34.1271 18.8999 33.6121 18.8999 33.075V20.925C18.8999 20.3879 19.1132 19.8729 19.493 19.4931C19.8728 19.1133 20.3878 18.9 20.9249 18.9H33.0749C33.612 18.9 34.127 19.1133 34.5068 19.4931C34.8866 19.8729 35.0999 20.3879 35.0999 20.925V33.075C35.0999 33.6121 34.8866 34.1271 34.5068 34.5069C34.127 34.8867 33.612 35.1 33.0749 35.1ZM51.9749 16.2H39.8249C39.2878 16.2 38.7728 15.9867 38.393 15.6069C38.0133 15.2271 37.7999 14.7121 37.7999 14.175V2.025C37.7999 1.48794 38.0133 0.97287 38.393 0.593109C38.7728 0.213348 39.2878 0 39.8249 0L51.9749 0C52.512 0 53.027 0.213348 53.4068 0.593109C53.7866 0.97287 53.9999 1.48794 53.9999 2.025V14.175C53.9999 14.7121 53.7866 15.2271 53.4068 15.6069C53.027 15.9867 52.512 16.2 51.9749 16.2Z" fill="currentColor" />
      <path opacity="0.8" d="M14.175 35.0999H2.025C1.48794 35.0999 0.97287 34.8866 0.593109 34.5068C0.213348 34.127 0 33.612 0 33.0749L0 20.9249C0 20.3878 0.213348 19.8728 0.593109 19.493C0.97287 19.1132 1.48794 18.8999 2.025 18.8999H14.175C14.7121 18.8999 15.2271 19.1132 15.6069 19.493C15.9867 19.8728 16.2 20.3878 16.2 20.9249V33.0749C16.2 33.612 15.9867 34.127 15.6069 34.5068C15.2271 34.8866 14.7121 35.0999 14.175 35.0999Z" fill="currentColor" />
      <path opacity="0.6" d="M14.175 53.9998H2.025C1.48794 53.9998 0.97287 53.7865 0.593109 53.4067C0.213348 53.0269 0 52.5119 0 51.9748L0 39.8248C0 39.2877 0.213348 38.7727 0.593109 38.3929C0.97287 38.0132 1.48794 37.7998 2.025 37.7998H14.175C14.7121 37.7998 15.2271 38.0132 15.6069 38.3929C15.9867 38.7727 16.2 39.2877 16.2 39.8248V51.9748C16.2 52.5119 15.9867 53.0269 15.6069 53.4067C15.2271 53.7865 14.7121 53.9998 14.175 53.9998Z" fill="currentColor" />
      <path opacity="0.4" d="M49.9501 32.4001H41.8501C41.4921 32.4001 41.1487 32.2579 40.8955 32.0047C40.6423 31.7515 40.5001 31.4081 40.5001 31.0501V22.9501C40.5001 22.5921 40.6423 22.2487 40.8955 21.9955C41.1487 21.7423 41.4921 21.6001 41.8501 21.6001H49.9501C50.3081 21.6001 50.6515 21.7423 50.9047 21.9955C51.1579 22.2487 51.3001 22.5921 51.3001 22.9501V31.0501C51.3001 31.4081 51.1579 31.7515 50.9047 32.0047C50.6515 32.2579 50.3081 32.4001 49.9501 32.4001ZM31.0501 52.6501H22.9501C22.5921 52.6501 22.2487 52.5079 21.9955 52.2547C21.7423 52.0015 21.6001 51.6581 21.6001 51.3001V43.2001C21.6001 42.8421 21.7423 42.4987 21.9955 42.2455C22.2487 41.9923 22.5921 41.8501 22.9501 41.8501H31.0501C31.4081 41.8501 31.7515 41.9923 32.0047 42.2455C32.2579 42.4987 32.4001 42.8421 32.4001 43.2001V51.3001C32.4001 51.6581 32.2579 52.0015 32.0047 52.2547C31.7515 52.5079 31.4081 52.6501 31.0501 52.6501Z" fill="currentColor" />
      <path opacity="0.2" d="M49.95 52.6501H41.85C41.492 52.6501 41.1486 52.5079 40.8954 52.2547C40.6422 52.0015 40.5 51.6581 40.5 51.3001V43.2001C40.5 42.8421 40.6422 42.4987 40.8954 42.2455C41.1486 41.9923 41.492 41.8501 41.85 41.8501H49.95C50.308 41.8501 50.6514 41.9923 50.9046 42.2455C51.1578 42.4987 51.3 42.8421 51.3 43.2001V51.3001C51.3 51.6581 51.1578 52.0015 50.9046 52.2547C50.6514 52.5079 50.308 52.6501 49.95 52.6501Z" fill="currentColor" />
    </symbol>

    <symbol id="listing" width="100%" height="100%" viewBox="0 0 60 54">
      <path d="M0.990803 13.5002H50.4899C50.8463 13.5002 51.173 13.3382 51.3512 13.075L59.2703 1.26249C59.355 1.1382 59.4 0.991096 59.3993 0.840664C59.3986 0.690232 59.3522 0.543568 59.2663 0.420094C59.1673 0.286721 59.0378 0.179001 58.8887 0.105953C58.7395 0.0329059 58.575 -0.00334246 58.409 0.000243943H8.9099C8.74272 -0.00337834 8.57713 0.0333861 8.42719 0.107417C8.27725 0.181448 8.14738 0.290561 8.0486 0.425494L0.129503 12.238C0.0447614 12.3623 -0.000226364 12.5094 0.000496866 12.6598C0.0012201 12.8103 0.0476202 12.9569 0.133553 13.0804C0.232513 13.2138 0.361988 13.3215 0.511137 13.3945C0.660285 13.4676 0.824765 13.5038 0.990803 13.5002Z" fill="currentColor" />
      <path d="M58.409 13.5002H8.9099C8.74272 13.4966 8.57713 13.5334 8.42719 13.6074C8.27725 13.6814 8.14738 13.7906 8.0486 13.9255L0.129503 25.738C0.0447614 25.8623 -0.000226364 26.0094 0.000496866 26.1598C0.0012201 26.3103 0.0476202 26.4569 0.133553 26.5804C0.232513 26.7138 0.361988 26.8215 0.511137 26.8945C0.660285 26.9676 0.824765 27.0038 0.990803 27.0002H50.4899C50.8463 27.0002 51.173 26.8382 51.3512 26.575L59.2703 14.7625C59.355 14.6382 59.4 14.4911 59.3993 14.3407C59.3986 14.1902 59.3522 14.0436 59.2663 13.9201C59.1673 13.7867 59.0378 13.679 58.8887 13.606C58.7395 13.5329 58.575 13.4967 58.409 13.5002Z" fill="currentColor" fill-opacity="0.7" />
      <path d="M58.409 27.0002H8.9099C8.74272 26.9966 8.57713 27.0334 8.42719 27.1074C8.27725 27.1814 8.14738 27.2906 8.0486 27.4255L0.129503 39.238C0.0447614 39.3623 -0.000226364 39.5094 0.000496866 39.6598C0.0012201 39.8103 0.0476202 39.9569 0.133553 40.0804C0.232513 40.2138 0.361988 40.3215 0.511137 40.3945C0.660285 40.4676 0.824765 40.5038 0.990803 40.5002H50.4899C50.8463 40.5002 51.173 40.3382 51.3512 40.075L59.2703 28.2625C59.355 28.1382 59.4 27.9911 59.3993 27.8407C59.3986 27.6902 59.3522 27.5436 59.2663 27.4201C59.1673 27.2867 59.0378 27.179 58.8887 27.106C58.7395 27.0329 58.575 26.9967 58.409 27.0002Z" fill="currentColor" fill-opacity="0.4" />
      <path d="M58.409 40.5002H8.9099C8.74272 40.4966 8.57713 40.5334 8.42719 40.6074C8.27725 40.6814 8.14738 40.7906 8.0486 40.9255L0.129503 52.738C0.0447614 52.8623 -0.000226364 53.0094 0.000496866 53.1598C0.0012201 53.3103 0.0476202 53.4569 0.133553 53.5804C0.232513 53.7138 0.361988 53.8215 0.511137 53.8945C0.660285 53.9676 0.824765 54.0038 0.990803 54.0002H50.4899C50.8463 54.0002 51.173 53.8382 51.3512 53.575L59.2703 41.7625C59.355 41.6382 59.4 41.4911 59.3993 41.3407C59.3986 41.1902 59.3522 41.0436 59.2663 40.9201C59.1673 40.7867 59.0378 40.679 58.8887 40.606C58.7395 40.5329 58.575 40.4967 58.409 40.5002Z" fill="currentColor" fill-opacity="0.2" />
    </symbol>

    <symbol id="dots" width="100%" height="100%" viewBox="0 0 146 146">
      <g opacity="0.6">
        <g opacity="0.2">
          <circle cx="35.1357" cy="35.7956" r="0.800735" fill="currentColor" />
          <circle cx="41.396" cy="35.7956" r="0.800735" fill="currentColor" />
          <circle cx="47.6562" cy="35.7956" r="0.800735" fill="currentColor" />
          <circle cx="53.9165" cy="35.7956" r="0.800735" fill="currentColor" />
          <circle cx="60.1767" cy="35.7956" r="0.800735" fill="currentColor" />
          <circle cx="66.437" cy="35.7956" r="0.800735" fill="currentColor" />
          <circle cx="72.6972" cy="35.7956" r="0.800735" fill="currentColor" />
          <circle cx="78.9575" cy="35.7956" r="0.800735" fill="currentColor" />
          <circle cx="85.2177" cy="35.7956" r="0.800735" fill="currentColor" />
          <circle cx="91.478" cy="35.7956" r="0.800735" fill="currentColor" />
          <circle cx="97.7382" cy="35.7956" r="0.800735" fill="currentColor" />
          <circle cx="103.999" cy="35.7956" r="0.800735" fill="currentColor" />
          <circle cx="110.259" cy="35.7956" r="0.800735" fill="currentColor" />
        </g>
        <g opacity="0.3">
          <circle cx="35.1357" cy="42.0559" r="0.800735" fill="currentColor" />
          <circle cx="41.396" cy="42.0559" r="0.800735" fill="currentColor" />
          <circle cx="47.6562" cy="42.0559" r="0.800735" fill="currentColor" />
          <circle cx="53.9165" cy="42.0559" r="0.800735" fill="currentColor" />
          <circle cx="60.1767" cy="42.0559" r="0.800735" fill="currentColor" />
          <circle cx="66.437" cy="42.0559" r="0.800735" fill="currentColor" />
          <circle cx="72.6972" cy="42.0559" r="0.800735" fill="currentColor" />
          <circle cx="78.9575" cy="42.0559" r="0.800735" fill="currentColor" />
          <circle cx="85.2177" cy="42.0559" r="0.800735" fill="currentColor" />
          <circle cx="91.478" cy="42.0559" r="0.800735" fill="currentColor" />
          <circle cx="97.7382" cy="42.0559" r="0.800735" fill="currentColor" />
          <circle cx="103.999" cy="42.0559" r="0.800735" fill="currentColor" />
          <circle cx="110.259" cy="42.0559" r="0.800735" fill="currentColor" />
        </g>
        <g opacity="0.4">
          <circle cx="35.1357" cy="48.3162" r="0.800735" fill="currentColor" />
          <circle cx="41.396" cy="48.3162" r="0.800735" fill="currentColor" />
          <circle cx="47.6562" cy="48.3162" r="0.800735" fill="currentColor" />
          <circle cx="53.9165" cy="48.3162" r="0.800735" fill="currentColor" />
          <circle cx="60.1767" cy="48.3162" r="0.800735" fill="currentColor" />
          <circle cx="66.437" cy="48.3162" r="0.800735" fill="currentColor" />
          <circle cx="72.6972" cy="48.3162" r="0.800735" fill="currentColor" />
          <circle cx="78.9575" cy="48.3162" r="0.800735" fill="currentColor" />
          <circle cx="85.2177" cy="48.3162" r="0.800735" fill="currentColor" />
          <circle cx="91.478" cy="48.3162" r="0.800735" fill="currentColor" />
          <circle cx="97.7382" cy="48.3162" r="0.800735" fill="currentColor" />
          <circle cx="103.999" cy="48.3162" r="0.800735" fill="currentColor" />
          <circle cx="110.259" cy="48.3162" r="0.800735" fill="currentColor" />
        </g>
        <g opacity="0.5">
          <circle cx="35.1357" cy="54.5765" r="0.800735" fill="currentColor" />
          <circle cx="41.396" cy="54.5765" r="0.800735" fill="currentColor" />
          <circle cx="47.6562" cy="54.5765" r="0.800735" fill="currentColor" />
          <circle cx="53.9165" cy="54.5765" r="0.800735" fill="currentColor" />
          <circle cx="60.1767" cy="54.5765" r="0.800735" fill="currentColor" />
          <circle cx="66.437" cy="54.5765" r="0.800735" fill="currentColor" />
          <circle cx="72.6972" cy="54.5765" r="0.800735" fill="currentColor" />
          <circle cx="78.9575" cy="54.5765" r="0.800735" fill="currentColor" />
          <circle cx="85.2177" cy="54.5765" r="0.800735" fill="currentColor" />
          <circle cx="91.478" cy="54.5765" r="0.800735" fill="currentColor" />
          <circle cx="97.7382" cy="54.5765" r="0.800735" fill="currentColor" />
          <circle cx="103.999" cy="54.5765" r="0.800735" fill="currentColor" />
          <circle cx="110.259" cy="54.5765" r="0.800735" fill="currentColor" />
        </g>
        <g opacity="0.6">
          <circle cx="35.1357" cy="60.8368" r="0.800735" fill="currentColor" />
          <circle cx="41.396" cy="60.8368" r="0.800735" fill="currentColor" />
          <circle cx="47.6562" cy="60.8368" r="0.800735" fill="currentColor" />
          <circle cx="53.9165" cy="60.8368" r="0.800735" fill="currentColor" />
          <circle cx="60.1767" cy="60.8368" r="0.800735" fill="currentColor" />
          <circle cx="66.437" cy="60.8368" r="0.800735" fill="currentColor" />
          <circle cx="72.6972" cy="60.8368" r="0.800735" fill="currentColor" />
          <circle cx="78.9575" cy="60.8368" r="0.800735" fill="currentColor" />
          <circle cx="85.2177" cy="60.8368" r="0.800735" fill="currentColor" />
          <circle cx="91.478" cy="60.8368" r="0.800735" fill="currentColor" />
          <circle cx="97.7382" cy="60.8368" r="0.800735" fill="currentColor" />
          <circle cx="103.999" cy="60.8368" r="0.800735" fill="currentColor" />
          <circle cx="110.259" cy="60.8368" r="0.800735" fill="currentColor" />
        </g>
        <g opacity="0.7">
          <circle cx="35.1357" cy="67.0971" r="0.800735" fill="currentColor" />
          <circle cx="41.396" cy="67.0971" r="0.800735" fill="currentColor" />
          <circle cx="47.6562" cy="67.0971" r="0.800735" fill="currentColor" />
          <circle cx="53.9165" cy="67.0971" r="0.800735" fill="currentColor" />
          <circle cx="60.1767" cy="67.0971" r="0.800735" fill="currentColor" />
          <circle cx="66.437" cy="67.0971" r="0.800735" fill="currentColor" />
          <circle cx="72.6972" cy="67.0971" r="0.800735" fill="currentColor" />
          <circle cx="78.9575" cy="67.0971" r="0.800735" fill="currentColor" />
          <circle cx="85.2177" cy="67.0971" r="0.800735" fill="currentColor" />
          <circle cx="91.478" cy="67.0971" r="0.800735" fill="currentColor" />
          <circle cx="97.7382" cy="67.0971" r="0.800735" fill="currentColor" />
          <circle cx="103.999" cy="67.0971" r="0.800735" fill="currentColor" />
          <circle cx="110.259" cy="67.0971" r="0.800735" fill="currentColor" />
        </g>
        <circle cx="35.1357" cy="73.3574" r="0.800735" fill="currentColor" />
        <circle cx="41.396" cy="73.3574" r="0.800735" fill="currentColor" />
        <circle cx="47.6562" cy="73.3574" r="0.800735" fill="currentColor" />
        <circle cx="53.9165" cy="73.3574" r="0.800735" fill="currentColor" />
        <circle cx="60.1767" cy="73.3574" r="0.800735" fill="currentColor" />
        <circle cx="66.437" cy="73.3574" r="0.800735" fill="currentColor" />
        <circle cx="72.6972" cy="73.3574" r="0.800735" fill="currentColor" />
        <circle cx="78.9575" cy="73.3574" r="0.800735" fill="currentColor" />
        <circle cx="85.2177" cy="73.3574" r="0.800735" fill="currentColor" />
        <circle cx="91.478" cy="73.3574" r="0.800735" fill="currentColor" />
        <circle cx="97.7382" cy="73.3574" r="0.800735" fill="currentColor" />
        <circle cx="103.999" cy="73.3574" r="0.800735" fill="currentColor" />
        <circle cx="110.259" cy="73.3574" r="0.800735" fill="currentColor" />
        <g opacity="0.7">
          <circle cx="35.1357" cy="79.6177" r="0.800735" fill="currentColor" />
          <circle cx="41.396" cy="79.6177" r="0.800735" fill="currentColor" />
          <circle cx="47.6562" cy="79.6177" r="0.800735" fill="currentColor" />
          <circle cx="53.9165" cy="79.6177" r="0.800735" fill="currentColor" />
          <circle cx="60.1767" cy="79.6177" r="0.800735" fill="currentColor" />
          <circle cx="66.437" cy="79.6177" r="0.800735" fill="currentColor" />
          <circle cx="72.6972" cy="79.6177" r="0.800735" fill="currentColor" />
          <circle cx="78.9575" cy="79.6177" r="0.800735" fill="currentColor" />
          <circle cx="85.2177" cy="79.6177" r="0.800735" fill="currentColor" />
          <circle cx="91.478" cy="79.6177" r="0.800735" fill="currentColor" />
          <circle cx="97.7382" cy="79.6177" r="0.800735" fill="currentColor" />
          <circle cx="103.999" cy="79.6177" r="0.800735" fill="currentColor" />
          <circle cx="110.259" cy="79.6177" r="0.800735" fill="currentColor" />
        </g>
        <g opacity="0.6">
          <circle cx="35.1357" cy="85.8779" r="0.800735" fill="currentColor" />
          <circle cx="41.396" cy="85.8779" r="0.800735" fill="currentColor" />
          <circle cx="47.6562" cy="85.8779" r="0.800735" fill="currentColor" />
          <circle cx="53.9165" cy="85.8779" r="0.800735" fill="currentColor" />
          <circle cx="60.1767" cy="85.8779" r="0.800735" fill="currentColor" />
          <circle cx="66.437" cy="85.8779" r="0.800735" fill="currentColor" />
          <circle cx="72.6972" cy="85.8779" r="0.800735" fill="currentColor" />
          <circle cx="78.9575" cy="85.8779" r="0.800735" fill="currentColor" />
          <circle cx="85.2177" cy="85.8779" r="0.800735" fill="currentColor" />
          <circle cx="91.478" cy="85.8779" r="0.800735" fill="currentColor" />
          <circle cx="97.7382" cy="85.8779" r="0.800735" fill="currentColor" />
          <circle cx="103.999" cy="85.8779" r="0.800735" fill="currentColor" />
          <circle cx="110.259" cy="85.8779" r="0.800735" fill="currentColor" />
        </g>
        <g opacity="0.5">
          <circle cx="35.1357" cy="92.1383" r="0.800735" fill="currentColor" />
          <circle cx="41.396" cy="92.1383" r="0.800735" fill="currentColor" />
          <circle cx="47.6562" cy="92.1383" r="0.800735" fill="currentColor" />
          <circle cx="53.9165" cy="92.1383" r="0.800735" fill="currentColor" />
          <circle cx="60.1767" cy="92.1383" r="0.800735" fill="currentColor" />
          <circle cx="66.437" cy="92.1383" r="0.800735" fill="currentColor" />
          <circle cx="72.6972" cy="92.1383" r="0.800735" fill="currentColor" />
          <circle cx="78.9575" cy="92.1383" r="0.800735" fill="currentColor" />
          <circle cx="85.2177" cy="92.1383" r="0.800735" fill="currentColor" />
          <circle cx="91.478" cy="92.1383" r="0.800735" fill="currentColor" />
          <circle cx="97.7382" cy="92.1383" r="0.800735" fill="currentColor" />
          <circle cx="103.999" cy="92.1383" r="0.800735" fill="currentColor" />
          <circle cx="110.259" cy="92.1383" r="0.800735" fill="currentColor" />
        </g>
        <g opacity="0.4">
          <circle cx="35.1357" cy="98.3985" r="0.800735" fill="currentColor" />
          <circle cx="41.396" cy="98.3985" r="0.800735" fill="currentColor" />
          <circle cx="47.6562" cy="98.3985" r="0.800735" fill="currentColor" />
          <circle cx="53.9165" cy="98.3985" r="0.800735" fill="currentColor" />
          <circle cx="60.1767" cy="98.3985" r="0.800735" fill="currentColor" />
          <circle cx="66.437" cy="98.3985" r="0.800735" fill="currentColor" />
          <circle cx="72.6972" cy="98.3985" r="0.800735" fill="currentColor" />
          <circle cx="78.9575" cy="98.3985" r="0.800735" fill="currentColor" />
          <circle cx="85.2177" cy="98.3985" r="0.800735" fill="currentColor" />
          <circle cx="91.478" cy="98.3985" r="0.800735" fill="currentColor" />
          <circle cx="97.7382" cy="98.3985" r="0.800735" fill="currentColor" />
          <circle cx="103.999" cy="98.3985" r="0.800735" fill="currentColor" />
          <circle cx="110.259" cy="98.3985" r="0.800735" fill="currentColor" />
        </g>
        <g opacity="0.3">
          <circle cx="35.1357" cy="104.659" r="0.800735" fill="currentColor" />
          <circle cx="41.396" cy="104.659" r="0.800735" fill="currentColor" />
          <circle cx="47.6562" cy="104.659" r="0.800735" fill="currentColor" />
          <circle cx="53.9165" cy="104.659" r="0.800735" fill="currentColor" />
          <circle cx="60.1767" cy="104.659" r="0.800735" fill="currentColor" />
          <circle cx="66.437" cy="104.659" r="0.800735" fill="currentColor" />
          <circle cx="72.6972" cy="104.659" r="0.800735" fill="currentColor" />
          <circle cx="78.9575" cy="104.659" r="0.800735" fill="currentColor" />
          <circle cx="85.2177" cy="104.659" r="0.800735" fill="currentColor" />
          <circle cx="91.478" cy="104.659" r="0.800735" fill="currentColor" />
          <circle cx="97.7382" cy="104.659" r="0.800735" fill="currentColor" />
          <circle cx="103.999" cy="104.659" r="0.800735" fill="currentColor" />
          <circle cx="110.259" cy="104.659" r="0.800735" fill="currentColor" />
        </g>
        <g opacity="0.2">
          <circle cx="34.2617" cy="110.919" r="0.800735" fill="currentColor" />
          <circle cx="40.6679" cy="110.919" r="0.800735" fill="currentColor" />
          <circle cx="47.0737" cy="110.919" r="0.800735" fill="currentColor" />
          <circle cx="53.4794" cy="110.919" r="0.800735" fill="currentColor" />
          <circle cx="59.8857" cy="110.919" r="0.800735" fill="currentColor" />
          <circle cx="66.2915" cy="110.919" r="0.800735" fill="currentColor" />
          <circle cx="72.6972" cy="110.919" r="0.800735" fill="currentColor" />
          <circle cx="79.103" cy="110.919" r="0.800735" fill="currentColor" />
          <circle cx="85.5092" cy="110.919" r="0.800735" fill="currentColor" />
          <circle cx="91.915" cy="110.919" r="0.800735" fill="currentColor" />
          <circle cx="98.3208" cy="110.919" r="0.800735" fill="currentColor" />
          <circle cx="104.727" cy="110.919" r="0.800735" fill="currentColor" />
          <circle cx="111.133" cy="110.919" r="0.800735" fill="currentColor" />
        </g>
      </g>
    </symbol>

    <symbol id="check" width="100%" height="100%" viewBox="0 0 14 15">
      <path d="M6.24887 1.09891C6.60817 0.573251 7.39183 0.573251 7.75113 1.09891C8.01344 1.48265 8.52902 1.6044 8.93262 1.37381C9.46977 1.06692 10.1486 1.38666 10.2541 1.99624L10.274 2.11115C10.3534 2.57047 10.7618 2.89919 11.2275 2.87868C11.8479 2.85135 12.319 3.43014 12.1662 4.03202L12.1334 4.16122C12.0166 4.62158 12.2443 5.09985 12.6754 5.29933C13.2586 5.56923 13.4323 6.3158 13.028 6.81539L12.983 6.87095C12.6862 7.23779 12.6862 7.76221 12.983 8.12905L13.028 8.18461C13.4323 8.6842 13.2586 9.43077 12.6754 9.70068C12.2443 9.90015 12.0166 10.3784 12.1334 10.8388L12.1662 10.968C12.319 11.5699 11.8479 12.1486 11.2275 12.1213C10.7618 12.1008 10.3534 12.4295 10.274 12.8888L10.2541 13.0038C10.1486 13.6133 9.46977 13.9331 8.93262 13.6262C8.52902 13.3956 8.01344 13.5173 7.75113 13.9011C7.39183 14.4267 6.60817 14.4267 6.24887 13.9011C5.98656 13.5173 5.47098 13.3956 5.06738 13.6262C4.53023 13.9331 3.85139 13.6133 3.74592 13.0038L3.72603 12.8888C3.64656 12.4295 3.23816 12.1008 2.77246 12.1213C2.1521 12.1486 1.68105 11.5699 1.83379 10.968L1.86658 10.8388C1.98341 10.3784 1.75566 9.90015 1.32462 9.70068C0.741374 9.43077 0.567732 8.6842 0.972003 8.18462L1.01697 8.12905C1.31381 7.76221 1.31381 7.23779 1.01697 6.87095L0.972004 6.81539C0.567732 6.3158 0.741374 5.56923 1.32462 5.29933C1.75566 5.09985 1.98341 4.62158 1.86658 4.16122L1.83379 4.03202C1.68105 3.43013 2.1521 2.85135 2.77246 2.87868C3.23816 2.89919 3.64656 2.57047 3.72603 2.11115L3.74592 1.99624C3.85139 1.38666 4.53023 1.06692 5.06738 1.37381C5.47098 1.6044 5.98656 1.48265 6.24887 1.09891Z" fill="currentColor" />
      <path d="M8.86663 6.21094L6.29997 8.78906L5.1333 7.61719" fill="transparent" stroke="white" stroke-width="1.5" stroke-linecap="round" stroke-linejoin="round" />
    </symbol>

    <symbol id="checkbox" width="100%" height="100%" viewBox="0 0 24 24">
      <path d="M0 7.87415V20C0 22.2091 1.79086 24 4 24H15.9612C17.035 24 18.0638 23.5682 18.8159 22.8019L22.8547 18.6869C23.5888 17.939 24 16.9329 24 15.885V4C24 1.79086 22.2091 0 20 0H7.79965C6.72532 0 5.69615 0.43216 4.9439 1.19916L1.14425 5.07332C0.410837 5.82111 0 6.82674 0 7.87415Z" stroke="transparent" fill-opacity="0.5" />
      <path d="M0.5 20V7.87415C0.5 6.95766 0.859483 6.07774 1.50122 5.42342L5.30087 1.54927C5.95909 0.87814 6.85961 0.5 7.79965 0.5H20C21.933 0.5 23.5 2.067 23.5 4V15.885C23.5 16.8019 23.1402 17.6822 22.4979 18.3366L18.4591 22.4516C17.8009 23.1222 16.9008 23.5 15.9612 23.5H4C2.067 23.5 0.5 21.933 0.5 20Z" fill="transparent" stroke-opacity="0.49" />
      <path d="M8.344 17.704C8.344 17.56 8.328 17.496 8.264 17.496L7.896 17.672C7.896 17.592 7.848 17.544 7.768 17.512L7.64 17.496C7.528 17.496 7.48 17.512 7.32 17.608C7.272 17.512 7.208 17.4 7.16 17.304C6.744 16.504 6.312 15.304 6.12 14.776C6.024 14.504 5.928 13.944 5.816 13.096C5.944 13.176 6.04 13.208 6.088 13.208C6.152 13.208 6.232 13.096 6.296 12.872C6.328 12.92 6.392 12.936 6.472 12.936C6.52 12.936 6.584 12.92 6.616 12.872L6.872 12.488L7.16 12.584H7.176C7.208 12.584 7.256 12.536 7.336 12.488C7.416 12.44 7.48 12.408 7.528 12.408L7.576 12.424C7.832 12.552 8.008 12.776 8.088 13.128C8.28 13.944 8.456 14.344 8.664 14.344C8.84 14.344 9.08 14.136 9.336 13.736C9.592 13.336 9.848 12.792 10.136 12.136C10.152 12.264 10.168 12.328 10.2 12.328C10.296 12.328 10.536 11.768 11.128 10.824C12.008 9.4 14.184 6.664 14.744 6.28C15.16 5.992 15.48 5.72 15.704 5.48C15.672 5.64 15.64 5.752 15.64 5.8C15.64 5.848 15.672 5.864 15.704 5.864L16.152 5.64V5.704C16.152 5.784 16.168 5.832 16.216 5.832C16.28 5.832 16.536 5.576 16.568 5.48L16.536 5.704L17.08 5.384L16.952 5.672C17.112 5.56 17.24 5.496 17.32 5.496C17.4 5.496 17.448 5.624 17.448 5.704C17.448 5.832 17.336 6.008 17.16 6.232C16.968 6.488 16.488 6.984 15.048 8.632C14.424 9.336 11.656 13.096 11.128 13.992L10.136 15.672C9.704 16.392 9.432 16.856 9.288 17.032C9.144 17.208 8.968 17.384 8.76 17.544L8.616 17.464L8.488 17.544L8.344 17.704Z" fill="currentColor" stroke="transparent" />
    </symbol>

    <symbol id="helmet" width="100%" height="100%" viewBox="0 0 24 27">
      <path d="M10.836 0.705265C7.95935 0.965775 5.63141 1.99672 3.79122 3.82028C1.86236 5.73806 0.626328 8.34869 0.127483 11.5413C0.0110855 12.2896 0 12.5612 0 14.2018C0 15.6207 0.0221709 16.2138 0.0997691 16.8346C0.277136 18.2591 0.581986 19.7279 0.947806 20.8919C1.17506 21.618 1.51871 22.466 1.62402 22.5547C1.6739 22.6046 1.99538 22.7598 2.32794 22.9039C3.63049 23.4692 4.43972 23.9127 6.097 24.9769C8.46374 26.5011 9.94919 27.0055 12.0277 27C13.1141 26.9944 13.7404 26.9057 14.6827 26.6064C15.7303 26.2739 16.5617 25.8471 18.0693 24.8715C19.455 23.9736 20.4693 23.4194 21.6776 22.9039C22.0102 22.7598 22.3261 22.6046 22.376 22.5602C22.4813 22.466 22.8249 21.618 23.0522 20.8919C23.4125 19.7334 23.7229 18.2646 23.9002 16.8346C23.9778 16.2027 24 15.6318 24 14.1741C23.9945 12.5224 23.9834 12.2286 23.8725 11.5191C23.3626 8.28217 22.1044 5.68818 20.1145 3.74822C18.4018 2.0854 16.3012 1.10988 13.6905 0.760693C13.0753 0.677553 11.4679 0.649839 10.836 0.705265ZM13.0531 1.48125C13.7737 1.54222 14.7104 1.7085 15.3256 1.88032C15.5529 1.94684 15.7469 2.00781 15.758 2.01335C15.7691 2.01889 15.6748 2.17409 15.5529 2.357C15.0818 3.0443 14.5995 4.26924 14.5164 4.99534L14.4831 5.27802H12H9.51686L9.4836 4.99534C9.40046 4.26924 8.91824 3.0443 8.44711 2.357C8.32517 2.17409 8.23095 2.01889 8.24203 2.00781C8.28083 1.97455 9.406 1.70296 9.84388 1.61982C10.8249 1.44245 11.9889 1.39256 13.0531 1.48125ZM7.9649 3.04984C8.34734 3.69834 8.72979 4.80688 8.72979 5.2503V5.39441L7.94273 5.49418C7.02818 5.60504 5.95289 5.7824 5.69792 5.86555C5.6037 5.89326 5.40416 6.02628 5.26005 6.15377C5.04388 6.34776 4.93303 6.52513 4.62818 7.16254L4.25681 7.93852L3.65266 8.09926C3.32009 8.18795 2.73256 8.36531 2.34457 8.49834C1.95104 8.62582 1.6351 8.72559 1.6351 8.71451C1.6351 8.70342 1.74596 8.42628 1.88453 8.09926C2.91547 5.64938 4.62263 3.73159 6.76213 2.63968L7.42725 2.30157L7.58245 2.48448C7.67113 2.58979 7.83741 2.84476 7.9649 3.04984ZM17.26 2.64522C19.394 3.75377 21.0956 5.66047 22.1155 8.09926C22.254 8.43183 22.3649 8.70342 22.3649 8.71451C22.3649 8.72559 22.049 8.62582 21.661 8.49834C21.2674 8.36531 20.6799 8.18795 20.3473 8.09926L19.7432 7.93852L19.3718 7.16254C18.9838 6.34222 18.7566 6.06508 18.352 5.89326C18.1303 5.79903 17.1381 5.62721 16.0351 5.48864C15.2702 5.39441 15.2702 5.39441 15.2702 5.24476C15.2702 4.85677 15.6305 3.77039 15.9464 3.19949C16.1349 2.86693 16.5284 2.31266 16.5783 2.31266C16.6005 2.31266 16.9053 2.46231 17.26 2.64522ZM14.0508 6.08171C15.758 6.19811 17.8199 6.49187 18.1469 6.6637C18.291 6.73575 18.3741 6.85769 18.5404 7.20688C18.6568 7.45631 18.7455 7.66693 18.7344 7.67802C18.7233 7.6891 18.4462 7.64476 18.1192 7.58379C16.0351 7.1958 14.145 7.02398 12 7.02398C9.70531 7.02398 8.25312 7.16809 5.41524 7.67247L5.23788 7.70573L5.38199 7.38425C5.62032 6.84106 5.67575 6.75238 5.85312 6.65816C6.15797 6.50296 8.31409 6.19256 9.81062 6.08725C10.7751 6.02074 13.1196 6.02074 14.0508 6.08171ZM3.07621 18.2147C5.94734 19.6503 8.9515 20.2822 12.5543 20.199C15.0596 20.1436 17.0217 19.7778 19.2554 18.9575C20.1533 18.6249 21.733 17.8378 22.4924 17.339C22.9746 17.0231 23.0855 16.9676 23.0855 17.0563C23.0855 17.3113 22.7917 18.8521 22.6088 19.5672C22.3926 20.4041 21.9603 21.7233 21.8439 21.9062C21.8051 21.9672 21.6222 22.078 21.4448 22.1501C20.9515 22.3552 19.4494 23.109 18.8952 23.436C18.6236 23.5967 18.0416 23.9625 17.6037 24.2452C17.1658 24.5279 16.7889 24.7607 16.7723 24.7607C16.7501 24.7607 16.351 24.0457 15.8799 23.1699C15.4088 22.2942 14.9598 21.5127 14.8933 21.424L14.7603 21.2688H12.0111C9.91594 21.2743 9.23418 21.2909 9.16767 21.3408C9.11778 21.3796 8.66882 22.1612 8.16998 23.0868C7.67113 24.0069 7.24988 24.7607 7.22771 24.7607C7.20554 24.7607 6.91732 24.5833 6.5903 24.3672C5.26005 23.4859 3.58614 22.5713 2.5552 22.1501C2.37783 22.078 2.19492 21.9672 2.15612 21.9062C2.03972 21.7177 1.58522 20.3431 1.38014 19.5505C1.20831 18.8632 0.91455 17.3002 0.91455 17.0563C0.91455 16.9676 1.0254 17.0231 1.51316 17.339C1.84018 17.5496 2.54411 17.9431 3.07621 18.2147ZM15.2203 23.5967C15.6748 24.4337 16.0462 25.1431 16.0462 25.1653C16.0462 25.2429 15.0485 25.6808 14.4665 25.8637C12.6651 26.418 10.7584 26.357 9.01801 25.6808C8.24203 25.3815 7.93718 25.2152 7.98152 25.1043C8.01478 25.0046 9.26189 22.6822 9.49469 22.2776L9.62771 22.0448L12.0111 22.0558L14.4 22.0725L15.2203 23.5967Z" fill="currentColor" />
      <path d="M11.0688 23.059C10.9025 23.2364 10.9136 23.4526 11.0909 23.5911C11.224 23.6964 11.3126 23.7075 11.9999 23.7075C12.6872 23.7075 12.7759 23.6964 12.909 23.5911C13.0919 23.447 13.0974 23.2142 12.9256 23.0535C12.8036 22.9371 12.7427 22.9315 11.9944 22.9315C11.224 22.9315 11.1852 22.9371 11.0688 23.059Z" fill="currentColor" />
      <path d="M11.0579 24.7163C10.9027 24.8881 10.9137 25.1154 11.0911 25.254C11.2241 25.3593 11.3128 25.3704 12.0001 25.3704C12.6874 25.3704 12.7761 25.3593 12.9091 25.254C13.0865 25.1154 13.0976 24.8881 12.9424 24.7163C12.8315 24.5999 12.7816 24.5944 12.0001 24.5944C11.2186 24.5944 11.1687 24.5999 11.0579 24.7163Z" fill="currentColor" />
    </symbol>

    <symbol id="star" width="100%" height="100%" viewBox="0 0 16 16">
      <path d="M6.10227 3.6055C6.94671 2.09067 7.36892 1.33325 8.00016 1.33325C8.6314 1.33325 9.05362 2.09067 9.89805 3.6055L10.1165 3.99741C10.3565 4.42788 10.4765 4.64311 10.6635 4.78512C10.8506 4.92714 11.0836 4.97985 11.5496 5.08528L11.9738 5.18127C13.6136 5.55229 14.4335 5.7378 14.6285 6.36507C14.8236 6.99235 14.2647 7.64597 13.1468 8.9532L12.8576 9.2914C12.5399 9.66288 12.381 9.84861 12.3096 10.0784C12.2381 10.3082 12.2621 10.556 12.3102 11.0516L12.3539 11.5028C12.5229 13.247 12.6074 14.1191 12.0967 14.5067C11.586 14.8944 10.8184 14.5409 9.28305 13.834L8.88584 13.6511C8.44955 13.4503 8.2314 13.3498 8.00016 13.3498C7.76893 13.3498 7.55078 13.4503 7.11449 13.6511L6.71728 13.834C5.18195 14.5409 4.41428 14.8944 3.90359 14.5067C3.39291 14.1191 3.47742 13.247 3.64643 11.5029L3.69015 11.0516C3.73818 10.556 3.76219 10.3082 3.69074 10.0784C3.61928 9.84861 3.46045 9.66288 3.14278 9.2914L2.85356 8.9532C1.73566 7.64597 1.17671 6.99235 1.37178 6.36507C1.56684 5.7378 2.38673 5.55229 4.02652 5.18127L4.45075 5.08528C4.91673 4.97985 5.14972 4.92714 5.33679 4.78512C5.52387 4.64311 5.64385 4.42788 5.88381 3.99741L6.10227 3.6055Z" fill="currentColor" />
    </symbol>

    <symbol id="arrow-left" width="100%" height="100%" viewBox="0 0 24 24">
      <path d="M9.76777 12L15.8839 5.88388C16.372 5.39573 16.372 4.60427 15.8839 4.11612C15.3957 3.62796 14.6043 3.62796 14.1161 4.11612L7.11612 11.1161C6.62796 11.6043 6.62796 12.3957 7.11612 12.8839L14.1161 19.8839C14.6043 20.372 15.3957 20.372 15.8839 19.8839C16.372 19.3957 16.372 18.6043 15.8839 18.1161L9.76777 12Z" fill="currentColor" />
    </symbol>

    <symbol id="arrow-right" width="100%" height="100%" viewBox="0 0 24 24">
      <path d="M14.2322 12L8.11612 5.88388C7.62796 5.39573 7.62796 4.60427 8.11612 4.11612C8.60427 3.62796 9.39573 3.62796 9.88388 4.11612L16.8839 11.1161C17.372 11.6043 17.372 12.3957 16.8839 12.8839L9.88388 19.8839C9.39573 20.372 8.60427 20.372 8.11612 19.8839C7.62796 19.3957 7.62796 18.6043 8.11612 18.1161L14.2322 12Z" fill="currentColor" />
    </symbol>

  </defs>
</svg>